<svg xmlns="http://www.w3.org/2000/svg" width="26" height="26" viewBox="0 0 26 26"><defs><style>.a{fill:#ffd54f;}</style></defs><g transform="translate(-0.016 0)"><g transform="translate(0.016 0.005)"><circle class="a" cx="9.28" cy="9.28" r="9.28" transform="translate(7.436)"/><circle class="a" cx="9.28" cy="9.28" r="9.28" transform="translate(0 7.435)"/></g><path d="M292.15,103.375a.828.828,0,0,1-.245-.037.844.844,0,0,1-.562-1.052h0a.951.951,0,0,0,.047-.277.844.844,0,0,0-.844-.844,2.531,2.531,0,1,1,0-5.062h1.687a.844.844,0,1,1,0,1.687h-1.687a.844.844,0,1,0,0,1.687,2.531,2.531,0,0,1,2.411,3.3A.844.844,0,0,1,292.15,103.375Z" transform="translate(-273.507 -91.293)"/><path d="M320.86,67.478a.844.844,0,0,1-.844-.844V64.947a.844.844,0,1,1,1.687,0v1.687A.844.844,0,0,1,320.86,67.478Z" transform="translate(-303.794 -60.723)"/><path d="M184.737,17.891a.844.844,0,0,1-.337-1.618,7.6,7.6,0,1,0-9.99-9.992.845.845,0,0,1-1.549-.675A9.29,9.29,0,1,1,185.075,17.82.881.881,0,0,1,184.737,17.891Z" transform="translate(-164.664 0)"/><path d="M130.547,264.539H128.86a.844.844,0,0,1,0-1.687h1.687a.844.844,0,1,0,0-1.687,2.531,2.531,0,0,1,0-5.062h1.687a.844.844,0,1,1,0,1.687h-1.687a.844.844,0,1,0,0,1.687,2.531,2.531,0,0,1,0,5.062Z" transform="translate(-121.559 -243.328)"/><path d="M160.86,227.478a.844.844,0,0,1-.844-.844v-1.687a.844.844,0,0,1,1.687,0v1.687A.844.844,0,0,1,160.86,227.478Z" transform="translate(-151.897 -212.788)"/><path d="M160.86,387.478a.844.844,0,0,1-.844-.844v-1.687a.844.844,0,1,1,1.687,0v1.687A.844.844,0,0,1,160.86,387.478Z" transform="translate(-151.897 -364.852)"/><path d="M9.3,178.663a9.28,9.28,0,1,1,9.28-9.28A9.28,9.28,0,0,1,9.3,178.663Zm0-16.873a7.593,7.593,0,1,0,7.593,7.593A7.593,7.593,0,0,0,9.3,161.79Z" transform="translate(0 -152.663)"/></g></svg>