<svg xmlns="http://www.w3.org/2000/svg" width="21.65" height="21.635" viewBox="0 0 21.65 21.635"><defs><style>.a{fill:#ffc73b;}.b{fill:#efb025;}.c{fill:#ff4440;}.d{fill:#ea2f2f;}</style></defs><g transform="translate(0 -0.5)"><path class="a" d="M43.98,189.719H61.911v13.3H43.98Zm0,0" transform="translate(-42.12 -181.217)"/><path class="b" d="M43.98,189.719H61.911v2.606H43.98Zm0,0" transform="translate(-42.12 -181.217)"/><path class="a" d="M7.9,110.711H28.884v4.477H7.9Zm0,0" transform="translate(-7.568 -105.55)"/><path class="c" d="M75.04,89.48q-.2.238-.4.482a18.212,18.212,0,0,0-3.817,8.758,18.306,18.306,0,0,1-1.48-2.31,19.246,19.246,0,0,0-2.292,1.757,22.018,22.018,0,0,1,4.789-10.8c.1-.125.207-.249.312-.372L73.5,88.151l1.375,1.185.168.144Zm0,0" transform="translate(-64.215 -82.835)"/><path class="c" d="M263.986,98.167a19.247,19.247,0,0,0-2.292-1.757,18.306,18.306,0,0,1-1.48,2.31,18.212,18.212,0,0,0-3.817-8.758q-.2-.244-.4-.482l.168-.144,1.376-1.185,1.345-1.159q.158.184.312.371a22.011,22.011,0,0,1,4.789,10.8Zm0,0" transform="translate(-245.171 -82.835)"/><path class="d" d="M261.529,99.219l-3.8,1.046a18.149,18.149,0,0,0-1.333-1.9l-.233-.626L256,97.29l1.544-.733,1.658-.788a21.984,21.984,0,0,1,2.331,3.45Zm0,0" transform="translate(-245.171 -91.24)"/><path class="d" d="M130.707,97.3l-.168.452-.233.626a18.074,18.074,0,0,0-1.333,1.9l-3.8-1.046a21.967,21.967,0,0,1,2.331-3.449l1.658.787Zm0,0" transform="translate(-119.882 -91.252)"/><g transform="translate(2.091 0.833)"><path class="c" d="M262.062,8.526,256,11.4l1.164,3.132,6.47-1.781a1.5,1.5,0,0,0,1.005-1.964l-.534-1.436a1.5,1.5,0,0,0-2.044-.83Zm0,0" transform="translate(-247.266 -8.381)"/><path class="c" d="M52.125,8.526,58.186,11.4l-1.164,3.132-6.47-1.781a1.5,1.5,0,0,1-1.005-1.964l.534-1.436a1.5,1.5,0,0,1,2.044-.83Zm0,0" transform="translate(-49.452 -8.381)"/><path class="c" d="M214.086,54.441h-1.9a.942.942,0,0,0-.942.942v2.762a.942.942,0,0,0,.942.942h1.9a.942.942,0,0,0,.942-.942V55.383A.942.942,0,0,0,214.086,54.441Zm0,0" transform="translate(-204.401 -52.494)"/><path class="c" d="M216.5,216.586h3.341V228.75H216.5Zm0,0" transform="translate(-209.432 -207.782)"/></g><path class="d" d="M216.5,216.586h3.341v1.47H216.5Zm0,0" transform="translate(-207.341 -206.948)"/><path d="M21.316,4.826H19.554a1.822,1.822,0,0,0,.225-1.7l-.534-1.436a1.83,1.83,0,0,0-2.5-1.015L12.516,2.685a1.269,1.269,0,0,0-.74-.238h-1.9a1.27,1.27,0,0,0-.74.238L4.907.677a1.83,1.83,0,0,0-2.5,1.015L1.872,3.128A1.835,1.835,0,0,0,1.959,4.6a1.8,1.8,0,0,0,.138.226H.335A.334.334,0,0,0,0,5.161V7.566a.334.334,0,1,0,.668,0V5.495H2.99c.037.013.075.025.113.036L5.908,6.3a22.321,22.321,0,0,0-1.644,3H.669V8.9A.334.334,0,0,0,0,8.9v.735a.334.334,0,0,0,.334.334H1.526V21.8a.334.334,0,0,0,.334.334h17.93a.334.334,0,0,0,.334-.334v-1.94a.334.334,0,0,0-.668,0v1.606H12.83V10.177a17.893,17.893,0,0,1,1.882,5.756.334.334,0,0,0,.248.275.329.329,0,0,0,.083.01.334.334,0,0,0,.267-.133,18.631,18.631,0,0,0,1.33-2.032,19.044,19.044,0,0,1,1.953,1.528.334.334,0,0,0,.553-.3,22.411,22.411,0,0,0-1.469-5.312h1.78v8.553a.334.334,0,1,0,.668,0V9.972h1.192a.334.334,0,0,0,.334-.334V5.161a.334.334,0,0,0-.334-.334ZM17.03,1.28a1.162,1.162,0,0,1,1.588.645l.534,1.436a1.162,1.162,0,0,1-.781,1.525L13.052,6.35V4.744c1.2-.732,4.176-2.242,4.918-1.195a.334.334,0,1,0,.545-.386c-.573-.808-1.779-.848-3.586-.117a15.916,15.916,0,0,0-1.877.923V3.723a1.27,1.27,0,0,0-.1-.5ZM9.875,3.115h1.9a.609.609,0,0,1,.608.608V6.485a.609.609,0,0,1-.608.608h-1.9a.609.609,0,0,1-.608-.608V3.723a.609.609,0,0,1,.608-.608ZM9.313,9.3a17.821,17.821,0,0,1,1.042-1.542h.94A17.747,17.747,0,0,1,12.337,9.3ZM2.554,4.3A1.15,1.15,0,0,1,2.5,3.361l.534-1.436A1.162,1.162,0,0,1,4.62,1.28L8.7,3.219a1.268,1.268,0,0,0-.1.5v.266a15.971,15.971,0,0,0-1.91-.942c-1.807-.731-3.014-.692-3.586.117a.334.334,0,1,0,.545.386C4.4,2.492,7.426,4.041,8.6,4.765V6.35L3.28,4.886A1.149,1.149,0,0,1,2.554,4.3ZM8.749,7.085a1.282,1.282,0,0,0,.807.636A18.59,18.59,0,0,0,6.412,15.04a18.285,18.285,0,0,1-.991-1.624.334.334,0,0,0-.476-.121,19.357,19.357,0,0,0-1.628,1.188A21.831,21.831,0,0,1,6.585,6.489ZM2.194,9.972h1.78a22.417,22.417,0,0,0-1.469,5.312.334.334,0,0,0,.553.3,19.028,19.028,0,0,1,1.953-1.528,18.623,18.623,0,0,0,1.33,2.032.334.334,0,0,0,.267.133.33.33,0,0,0,.083-.011.334.334,0,0,0,.248-.275,17.9,17.9,0,0,1,1.882-5.756v11.29H2.194Zm7.295,11.5V9.972h2.673v11.5ZM16.706,13.3a.334.334,0,0,0-.476.121,18.261,18.261,0,0,1-.991,1.624A18.585,18.585,0,0,0,12.1,7.721a1.281,1.281,0,0,0,.807-.636l2.164-.6a21.842,21.842,0,0,1,3.267,7.995A19.388,19.388,0,0,0,16.706,13.3ZM20.982,9.3H17.387a22.338,22.338,0,0,0-1.644-3l2.8-.772c.038-.011.076-.023.113-.036h2.321Zm0,0"/></g></svg>