<svg id="圖層_1" data-name="圖層 1"
    xmlns="http://www.w3.org/2000/svg" viewBox="0 0 24.64 31.9">
    <defs>
        <style>.cls-1{fill:#fff}</style>
    </defs>
    <title>關於鈕</title>
    <path class="cls-1" d="M401,270.71l-1.35-1.3h7.56l-1.35,1.3a1.1,1.1,0,0,0-.2.28h0a.67.67,0,0,0-.07.18l0,.07s0,.05,0,.07a1,1,0,0,0,.33,1l.16.14h0l1.12,1h-7.46l1.12-1h0l.16-.14a1.06,1.06,0,0,0,.34-.78,1.09,1.09,0,0,0,0-.18s0-.05,0-.07a.19.19,0,0,0,0-.07,1.34,1.34,0,0,0-.07-.18h0A1.1,1.1,0,0,0,401,270.71Z" transform="translate(-391.09 -269.41)"/>
    <path class="cls-1" d="M410.36,296.18H396.45a1.35,1.35,0,0,1-1.34-1.34V276a1.35,1.35,0,0,1,1.34-1.34H400l-.06.6h7l0-.6h3.51A1.34,1.34,0,0,1,411.7,276v18.83A1.34,1.34,0,0,1,410.36,296.18Zm-13.63-1.61h13.36V276.28H408.3a1.43,1.43,0,0,1-1.24.6h-7.31a1.48,1.48,0,0,1-1.24-.6h-1.78Z" transform="translate(-391.09 -269.41)"/>
    <path class="cls-1" d="M8,15.82h8.63a.32.32,0,0,1,.32.32v.32a.31.31,0,0,1-.31.31H8a.32.32,0,0,1-.32-.32v-.31A.32.32,0,0,1,8,15.82Z"/>
    <path class="cls-1" d="M14.53,19.19h2.53a.31.31,0,0,1,.31.31v.32a.31.31,0,0,1-.31.31H14.53a.32.32,0,0,1-.32-.32v-.32A.31.31,0,0,1,14.53,19.19Z"/>
    <path class="cls-1" d="M8,13.72h8.63A.32.32,0,0,1,17,14v.31a.32.32,0,0,1-.32.32H8a.32.32,0,0,1-.32-.32V14A.31.31,0,0,1,8,13.72Z"/>
    <path class="cls-1" d="M10.42,10.26h3.79a.32.32,0,0,1,.32.32v.32a.32.32,0,0,1-.32.32H10.42a.32.32,0,0,1-.32-.32v-.32A.31.31,0,0,1,10.42,10.26Z"/>
    <path class="cls-1" d="M415.09,271h-8.17l-.42.4a.12.12,0,0,0,0,.18l.92.84h5.46a.63.63,0,0,1,.63.63v24.77a.63.63,0,0,1-.63.63H393.93a.63.63,0,0,1-.63-.63V273a.63.63,0,0,1,.63-.63h5.47l.91-.84a.12.12,0,0,0,.05-.09.14.14,0,0,0,0-.09l-.42-.4h-8.18a.63.63,0,0,0-.63.63v29.06a.63.63,0,0,0,.63.63h23.37a.64.64,0,0,0,.64-.63V271.62A.64.64,0,0,0,415.09,271Z" transform="translate(-391.09 -269.41)"/>
    <path class="cls-1" d="M391.72,301a.31.31,0,0,1-.31-.31V271.62a.31.31,0,0,1,.31-.31h8l.17.16-.67.62h-5.34a1,1,0,0,0-.95,1v24.77a1,1,0,0,0,.95.95h18.95a1,1,0,0,0,1-.95V273a1,1,0,0,0-1-1h-5.33l-.67-.62.17-.16h8a.31.31,0,0,1,.31.31v29.06a.31.31,0,0,1-.31.31Z" transform="translate(-391.09 -269.41)"/>
</svg>
