<svg id="圖層_1" data-name="圖層 1"
    xmlns="http://www.w3.org/2000/svg" viewBox="0 0 157.48 230.03">
    <defs>
        <style>.cls-1{fill:#fff}</style>
    </defs>
    <title>images (1)</title>
    <path class="cls-1" d="M422,389c-10.18-11.95-19.89-22.89-29.08-34.25-16.24-20.07-30.88-41.15-42.45-64.44-21.15-42.6,8.26-96.26,56.23-105,45-8.21,84.53,19.4,93,64.4,2.51,13.36.1,26.07-5.34,38.42-10.79,24.46-26.45,45.74-43,66.4C442.13,365.92,432.36,376.84,422,389Zm.19-18.22c8.93-10.8,17.55-20.73,25.62-31.08,13.81-17.74,26.67-36.12,35.77-56.85,4.66-10.64,6.43-21.52,3.92-33.06-7.72-35.46-38.91-57.74-75.82-53.47-41.54,4.81-67.6,52.31-51.31,86.67C375.82,315.57,398,343.15,422.19,370.78Z" transform="translate(-343.25 -183.85)"/>
    <path class="cls-1" d="M489.4,387.55C477.93,379.7,465.82,378,454,374.94V363.15c14,2.11,27.56,4.61,39.18,12.72,10.22,7.13,10.07,15.7-.25,22.75-10.54,7.21-22.7,10.23-35.06,12.18-30.28,4.76-60.41,4.57-90-4.53A65.52,65.52,0,0,1,350,397.7c-9.31-6.47-8.9-14.78.52-21.37,8.76-6.12,18.9-8.87,29.18-11.06,4.2-.89,8.46-1.48,13-2.26v11.9c-13,2.09-25.82,4-37.88,12.41,3.67,2,6.49,3.85,9.57,5.08,21.31,8.48,43.65,10,66.25,9.27,16.19-.54,32.19-2.53,47.42-8.49C481.57,391.81,484.84,389.83,489.4,387.55Z" transform="translate(-343.25 -183.85)"/>
    <path class="cls-1" d="M422,223.74a38.73,38.73,0,1,1-38.68,38.58A38.17,38.17,0,0,1,422,223.74Zm0,65.43c14.41,0,26.83-12.36,26.84-26.74S436.38,235.62,422,235.6s-26.8,12.42-26.83,26.79S407.56,289.16,422,289.17Z" transform="translate(-343.25 -183.85)"/>
</svg>
