<svg xmlns="http://www.w3.org/2000/svg" width="70" height="24.892" viewBox="0 0 70 24.892">
    <defs>
        <style>.a{fill:#00a1e9;}.b{fill:#3f3b3a;}</style>
    </defs>
    <path class="a" d="M4.025,0A4,4,0,0,0,0,3.988V20.9a4.005,4.005,0,0,0,4.025,3.988H21.1A4.006,4.006,0,0,0,25.125,20.9v-.173c-.075-.031-6.53-2.7-9.811-4.261-2.213,2.7-5.068,4.336-8.033,4.336-5.013,0-6.715-4.346-4.341-7.207A5.041,5.041,0,0,1,5.7,12.045c2.137-.52,5.539.325,8.727,1.367a17.213,17.213,0,0,0,1.415-3.427H6.022V9h5.066V7.233H4.952V6.246h6.136V3.725a.419.419,0,0,1,.434-.425H14V6.246h6.066v.987H14V9h4.951a19.957,19.957,0,0,1-2.1,5.247c1.5.539,2.852,1.049,3.857,1.383a29.076,29.076,0,0,0,4.414,1.262V3.988A4.005,4.005,0,0,0,21.1,0H4.025ZM6.78,13.486q-.323,0-.649.035a4.956,4.956,0,0,0-2.45.9c-1.931,1.668-.775,4.719,3.133,4.719,2.272,0,4.542-1.439,6.326-3.743-2.3-1.111-4.279-1.936-6.359-1.912Z"/>
    <path class="b" d="M391.33,35.248l-1.122,2.42-1.138-2.42h-1.112l1.732,3.346v2.334h1.02V38.594l.006-.013,1.725-3.333Zm-8.212,1.464.791,2.356H382.3Zm1.034,3.071.381,1.144H385.6l-2.1-5.679h-.817l-2.1,5.679h1.07l.4-1.144Zm-7.979-1.82h-1.136V36.02h1.136a.938.938,0,0,1,.912.975.923.923,0,0,1-.912.968m.058-2.715H374.01v5.679h1.028V38.744h1.193a1.753,1.753,0,1,0,0-3.5m-7.418,5.679h1.029V35.248h-1.029Zm-7.232-5.679v5.679h3.461v-.774h-2.433V35.248Zm-5.857,1.464.79,2.356h-1.609Zm1.034,3.071.381,1.144h1.068L356.1,35.247h-.816l-2.1,5.679h1.069l.4-1.144ZM364,24.145h-4.41v-1.57H364.7V21.6h-5.114v-1.99h-2.28a.458.458,0,0,0-.452.465V21.6h-5.078v.978h5.078v1.57h-4.286v.977H361.1a8.384,8.384,0,0,1-2.815,3.808,10.6,10.6,0,0,1-2.8-2.835H353.2a12.7,12.7,0,0,0,3.661,3.887,19.961,19.961,0,0,1-5.175,2.3v1.171a23.2,23.2,0,0,0,6.625-2.538,23.8,23.8,0,0,0,6.537,2.538V32.344a27.307,27.307,0,0,1-5.062-2.4,10.636,10.636,0,0,0,4.208-5.8M378.322,19.8h-2.3v2.383h-5.659v.96h5.659v8.569a.4.4,0,0,1-.371.36h-1.167v.993h2.976a.9.9,0,0,0,.858-.889V23.146h.932v-.96h-.932Zm-4.841,4.96a.512.512,0,0,0-.455-.289h-1.913l1.491,4.662h2.262Zm-5.65-5.073L365.2,25.879h2.02v7.364h2.209V23.475h-.8l1.664-3.784ZM393.447,32.9,392.64,30.2a.42.42,0,0,0-.4-.3H390.1l.621,2.08h-2.515v-4.03h4.938V26.99h-4.938v-1.9h4.938v-.959H380.823v.959h4.937v1.9h-4.937v.959h4.937v4.03h-4.937v.959h12.624l-.01-.033ZM383.391,21.846h7.192v1.415h2.569V21.584a.033.033,0,0,1,0-.01.682.682,0,0,0-.665-.688h-4.158V19.567H385.64v1.319h-4.818v2.374h2.568Z" transform="translate(-323.448 -17.944)"/>
</svg>
