<svg xmlns="http://www.w3.org/2000/svg" viewBox="0 0 12.54 12.54">
    <defs>
        <style>.cls-1{fill:none;stroke:#f66;stroke-miterlimit:10;stroke-width:1.2px;}</style>
    </defs>
    <g id="圖層_2" data-name="圖層 2">
        <g id="Rectangle_15" data-name="Rectangle 15">
            <path id="Rectangle_1618" data-name="Rectangle 1618" class="cls-1" d="M8.28.6h2.77a.86.86,0,0,1,.89.82v2.9a.86.86,0,0,1-.89.82H8.28a.86.86,0,0,1-.89-.82V1.42A.86.86,0,0,1,8.28.6Z"/>
        </g>
        <g id="Rectangle_15-2" data-name="Rectangle 15">
            <path id="Rectangle_1618-2" data-name="Rectangle 1618" class="cls-1" d="M1.49.6H4.26a.85.85,0,0,1,.88.82v2.9a.85.85,0,0,1-.88.82H1.49A.86.86,0,0,1,.6,4.32V1.42A.86.86,0,0,1,1.49.6Z"/>
        </g>
        <g id="Rectangle_15-3" data-name="Rectangle 15">
            <path id="Rectangle_1618-3" data-name="Rectangle 1618" class="cls-1" d="M8.28,7.4h2.77a.86.86,0,0,1,.89.82v2.9a.86.86,0,0,1-.89.82H8.28a.86.86,0,0,1-.89-.82V8.22A.86.86,0,0,1,8.28,7.4Z"/>
        </g>
        <g id="Rectangle_15-4" data-name="Rectangle 15">
            <path id="Rectangle_1618-4" data-name="Rectangle 1618" class="cls-1" d="M1.49,7.4H4.26a.85.85,0,0,1,.88.82v2.9a.85.85,0,0,1-.88.82H1.49a.86.86,0,0,1-.89-.82V8.22A.86.86,0,0,1,1.49,7.4Z"/>
        </g>
    </g>
</svg>
