<svg xmlns="http://www.w3.org/2000/svg" viewBox="0 0 13.25 15.88"><defs><style>.cls-1{fill:#fff;}</style></defs><title>android</title><g id="圖層_2" data-name="圖層 2"><g id="圖層_1-2" data-name="圖層 1"><g id="Group_521" data-name="Group 521"><g id="android"><path id="Path_125" data-name="Path 125" class="cls-1" d="M2.65,11.91a.63.63,0,0,0,.59.66H4v2.32a1,1,0,0,0,2,0V12.57H7.29v2.32a1,1,0,0,0,2,0V12.57h.66A.63.63,0,0,0,10.6,12V5.28H2.65ZM1,5.28a1,1,0,0,0-1,1v4.64a1,1,0,0,0,1,1,1,1,0,0,0,1-1V6.28a1,1,0,0,0-1-1Zm11.27,0a1,1,0,0,0-1,1v4.64a1,1,0,0,0,2,0V6.28A1,1,0,0,0,12.26,5.28ZM8.94,1.44,9.81.58a.34.34,0,0,0,0-.46h0a.34.34,0,0,0-.46,0h0l-1,1A3,3,0,0,0,6.63.64,3.94,3.94,0,0,0,4.84,1l-.93-1a.7.7,0,0,0-.53,0,.7.7,0,0,0,0,.53l.86.86A4.05,4.05,0,0,0,2.65,4.62h8A3.82,3.82,0,0,0,8.94,1.44ZM5.3,3.29H4.64V2.63H5.3Zm3.31,0H8V2.63h.66Z"/></g></g></g></g></svg>