<svg xmlns="http://www.w3.org/2000/svg" width="14" height="14" viewBox="0 0 14 14">
    <defs>
        <style>.a{fill:#fff;}</style>
    </defs>
    <path class="a" d="M-248.725-142.67l1.906,4.052a.333.333,0,0,0,.249.19l4.263.65a.352.352,0,0,1,.184.593l-3.085,3.154a.358.358,0,0,0-.1.308l.728,4.454a.335.335,0,0,1-.481.366l-3.813-2.1a.317.317,0,0,0-.308,0l-3.813,2.1a.335.335,0,0,1-.481-.366l.728-4.454a.359.359,0,0,0-.1-.308l-3.085-3.154a.352.352,0,0,1,.184-.593l4.263-.65a.333.333,0,0,0,.249-.19l1.907-4.052A.325.325,0,0,1-248.725-142.67Z" transform="translate(256.022 142.863)"/>
</svg>
