<svg xmlns="http://www.w3.org/2000/svg" width="24.391" height="24.391" viewBox="0 0 24.391 24.391">
    <defs>
        <style>.a{fill:#fff;}</style>
    </defs>
    <g transform="translate(-1060.304 762)">
        <path class="a" d="M1072.5-762a12.21,12.21,0,0,0-12.2,12.2,12.209,12.209,0,0,0,12.2,12.2,12.209,12.209,0,0,0,12.2-12.2A12.21,12.21,0,0,0,1072.5-762Zm0,22.174a9.989,9.989,0,0,1-9.978-9.978,9.99,9.99,0,0,1,9.978-9.978,9.99,9.99,0,0,1,9.978,9.978A9.99,9.99,0,0,1,1072.5-739.826Z" transform="translate(0 0)"/>
        <path class="a" d="M1206.812-692a1.508,1.508,0,0,0-1.505,1.506,1.507,1.507,0,0,0,1.505,1.505,1.507,1.507,0,0,0,1.505-1.505A1.507,1.507,0,0,0,1206.812-692Z" transform="translate(-134.312 -64.839)"/>
        <path class="a" d="M1211.433-622a1.13,1.13,0,0,0-1.129,1.129v6.776a1.129,1.129,0,0,0,1.129,1.129,1.129,1.129,0,0,0,1.129-1.129v-6.776A1.129,1.129,0,0,0,1211.433-622Z" transform="translate(-138.934 -129.762)"/>
    </g>
</svg>
