<?xml version="1.0" encoding="utf-8"?>
<!-- Generator: Adobe Illustrator 23.0.1, SVG Export Plug-In . SVG Version: 6.00 Build 0)  -->
<svg version="1.1" id="圖層_1"
    xmlns="http://www.w3.org/2000/svg"
    xmlns:xlink="http://www.w3.org/1999/xlink" viewBox="390 265 47 40" xml:space="preserve">
    <style type="text/css">
	.st0{fill:none;stroke:#fff;stroke-width:2;stroke-miterlimit:10;}
    .cls-1{fill:#fff}
    </style>
    <path class="st0" d="M392.45,266.31h9.4c0,0,1.04,0.25,1.38,1.09c0.35,0.84,2.03,4.05,2.03,4.05s0.3,0,3.71,0
	c3.41,0,24.08,0,24.08,0s5.04-0.64,0.84,4.25s-7.22,8.95-7.22,8.95s-1.04,1.53-2.67,1.53s-12.21,0.25-12.21,0.25v3.02h11.52
	c0,0,1.58-0.2,2.08,0.59c0.49,0.79-0.15,2.62-0.15,2.62s-0.15,0.94-1.73,0.99c-1.58,0.05-14.04,0-14.04,0s-1.68,0.49-1.73-3.71
	c-0.05-4.2,0-4.99,0-4.99l-7.42-13.95c0,0,0.05-0.74-2.08-0.74s-5.44,0.15-5.44,0.15s-2.37,0.1-2.27-2.23
	C390.62,265.86,391.95,266.31,392.45,266.31z"/>
    <line class="st0" x1="406.74" y1="275.8" x2="429.24" y2="275.8"/>
    <line class="st0" x1="409.41" y1="281.29" x2="425.28" y2="281.29"/>
    <circle class="cls-1" cx="411.93" cy="298.55" r="2.52"/>
    <circle class="cls-1" cx="421.37" cy="298.55" r="2.52"/>
</svg>
