<svg xmlns="http://www.w3.org/2000/svg" width="12.808" height="12.808" viewBox="0 0 12.808 12.808">
    <defs>
        <style>.a{fill:#b4b4b4;}</style>
    </defs>
    <path class="a" d="M6.4,12.808a6.4,6.4,0,1,1,6.4-6.4A6.411,6.411,0,0,1,6.4,12.808ZM6.4.915A5.489,5.489,0,1,0,11.893,6.4,5.5,5.5,0,0,0,6.4.915Zm0,0"/>
    <path class="a" d="M151.319,151.777a.456.456,0,0,1-.323-.134l-4.574-4.574a.457.457,0,0,1,.647-.647L151.642,151a.457.457,0,0,1-.323.781Zm0,0" transform="translate(-142.627 -142.629)"/>
    <path class="a" d="M146.743,151.776a.457.457,0,0,1-.323-.781l4.574-4.574a.457.457,0,0,1,.647.647l-4.574,4.574A.456.456,0,0,1,146.743,151.776Zm0,0" transform="translate(-142.626 -142.627)"/>
</svg>
