<svg xmlns="http://www.w3.org/2000/svg" viewBox="0 0 32.25 23.25"><defs><style>.cls-1,.cls-3{fill:none;}.cls-2{fill:#f66;}.cls-3{stroke:#f66;stroke-miterlimit:10;stroke-width:1.5px;}</style></defs><title>connection</title><g id="圖層_2" data-name="圖層 2"><g id="圖層_1-2" data-name="圖層 1"><g id="Group_40" data-name="Group 40"><g id="Path_14" data-name="Path 14"><path class="cls-1" d="M4.21,0H28a4.19,4.19,0,0,1,4.21,4.17h0V19.08A4.19,4.19,0,0,1,28,23.25H4.21A4.19,4.19,0,0,1,0,19.08H0V4.17A4.19,4.19,0,0,1,4.21,0Z"/><path class="cls-2" d="M4.21,1.8A2.39,2.39,0,0,0,1.8,4.17V19.08a2.39,2.39,0,0,0,2.41,2.37H28a2.39,2.39,0,0,0,2.41-2.37V4.17A2.39,2.39,0,0,0,28,1.8H4.21m0-1.8H28a4.19,4.19,0,0,1,4.21,4.17V19.08A4.19,4.19,0,0,1,28,23.25H4.21A4.19,4.19,0,0,1,0,19.08V4.17A4.19,4.19,0,0,1,4.21,0Z"/></g><path id="Path_13" data-name="Path 13" class="cls-3" d="M2.33,2.09l13.8,12.42L29.93,2.09"/><line id="Line_1" data-name="Line 1" class="cls-3" x1="13.09" y1="11.45" x2="2.33" y2="21.07"/><line id="Line_2" data-name="Line 2" class="cls-3" x1="29.92" y1="21.07" x2="19.1" y2="11.4"/></g></g></g></svg>