<svg xmlns="http://www.w3.org/2000/svg" width="39.921" height="26.219" viewBox="0 0 39.921 26.219"><defs><style>.a{fill:#fff;}</style></defs><g transform="translate(0 -55.109)"><g transform="translate(0 55.109)"><g transform="translate(0 0)"><path class="a" d="M39.9,73.242a37.264,37.264,0,0,0-1.094-7.21,27.672,27.672,0,0,0-2.238-6.066c-3.481-6.116-7.26-5.171-11.784-3.978a32.388,32.388,0,0,1-4.574.9h-.5a32.388,32.388,0,0,1-4.574-.9c-4.525-1.144-8.3-2.138-11.784,4.028a25.348,25.348,0,0,0-2.238,6.066,37.263,37.263,0,0,0-1.094,7.21,13.548,13.548,0,0,0,.7,5.668A3.768,3.768,0,0,0,3.1,81.2a4.862,4.862,0,0,0,3.182-.348,23.371,23.371,0,0,0,6.365-4.525c1.541-1.492,4.425-2.238,7.309-2.238s5.768.746,7.309,2.238a23.371,23.371,0,0,0,6.365,4.525,5.2,5.2,0,0,0,3.182.348A3.716,3.716,0,0,0,39.2,78.911,13.3,13.3,0,0,0,39.9,73.242Zm-2.387,4.972a1.972,1.972,0,0,1-1.193,1.243,3.434,3.434,0,0,1-2.039-.249,20.278,20.278,0,0,1-5.768-4.127c-1.889-1.889-5.221-2.834-8.552-2.834s-6.663.945-8.6,2.735A20.661,20.661,0,0,1,5.591,79.11a3.084,3.084,0,0,1-2.039.249,1.972,1.972,0,0,1-1.193-1.243,11.757,11.757,0,0,1-.5-4.773A34.3,34.3,0,0,1,2.906,66.48a23.726,23.726,0,0,1,2.088-5.619c2.735-4.923,5.917-4.127,9.7-3.133a29.168,29.168,0,0,0,4.873.945h.746a28.807,28.807,0,0,0,4.923-.945c3.779-.945,6.961-1.79,9.7,3.133a22.928,22.928,0,0,1,2.088,5.619,37.635,37.635,0,0,1,1.044,6.862A11.506,11.506,0,0,1,37.513,78.215Z" transform="translate(0 -55.109)"/></g></g><g transform="translate(5.143 60.066)"><path class="a" d="M51.616,98.462a3.021,3.021,0,0,0-1.79-.845,2.829,2.829,0,0,0-.8-1.74l-.05-.05a2.816,2.816,0,0,0-2.039-.845,2.936,2.936,0,0,0-2.039.845,2.89,2.89,0,0,0-.845,1.79,2.962,2.962,0,0,0-1.79.8l-.05.05a2.816,2.816,0,0,0-.845,2.039,2.936,2.936,0,0,0,.845,2.039,2.772,2.772,0,0,0,1.84.845,2.653,2.653,0,0,0,.845,1.79,2.816,2.816,0,0,0,2.039.845,2.936,2.936,0,0,0,2.039-.845,3.021,3.021,0,0,0,.845-1.79,2.653,2.653,0,0,0,1.79-.845,2.816,2.816,0,0,0,.845-2.039A2.936,2.936,0,0,0,51.616,98.462Zm-1.243,2.784a1.012,1.012,0,0,1-.746.3h-.7a.944.944,0,0,0-.945.945v.646a1.044,1.044,0,1,1-2.088,0v-.7a.944.944,0,0,0-.945-.945h-.7a1.02,1.02,0,0,1-.746-1.74l.05-.05a1.188,1.188,0,0,1,.7-.249h.7a.944.944,0,0,0,.945-.945v-.7a1.055,1.055,0,0,1,1.79-.746l.05.05a1.188,1.188,0,0,1,.249.7v.7a.944.944,0,0,0,.945.945h.7a1.055,1.055,0,0,1,.746,1.79Z" transform="translate(-41.373 -94.981)"/></g><g transform="translate(26.872 60.314)"><circle class="a" cx="1.74" cy="1.74" r="1.74"/></g><g transform="translate(26.872 67.375)"><g transform="translate(0 0)"><circle class="a" cx="1.74" cy="1.74" r="1.74"/></g></g><g transform="translate(23.342 63.845)"><g transform="translate(0 0)"><circle class="a" cx="1.74" cy="1.74" r="1.74"/></g></g><g transform="translate(30.402 63.845)"><g transform="translate(0 0)"><circle class="a" cx="1.74" cy="1.74" r="1.74"/></g></g></g></svg>