<svg id="圖層_1" data-name="圖層 1"
    xmlns="http://www.w3.org/2000/svg" viewBox="0 0 37.04 25.03">
    <defs>
        <style>.cls-1{fill:#fff}</style>
    </defs>
    <title>聯絡鈕</title>
    <path class="cls-1" d="M434.91,286.28H405.86a4,4,0,0,0-4,4v17a4,4,0,0,0,4,4h29.05a4,4,0,0,0,4-4v-17A4,4,0,0,0,434.91,286.28Zm.48,2.07a2,2,0,0,1,1.52,1.93V292l-15.67,9.37a1.72,1.72,0,0,1-.87.2h0a1.78,1.78,0,0,1-.85-.19l-15.66-9.23v-1.83a2,2,0,0,1,1.52-1.93ZM405.7,309.1l11.57-6.83,1.26.74a4,4,0,0,0,3.71,0l1.4-.84,11.58,6.94Zm-1.84-1.79V294.37l11.5,6.77L404,307.87A2.11,2.11,0,0,1,403.86,307.31ZM425.54,301l11.37-6.81v13.09a1.85,1.85,0,0,1-.07.48Z" transform="translate(-401.86 -286.28)"/>
</svg>
