<svg xmlns="http://www.w3.org/2000/svg" width="30.582" height="29.308" viewBox="0 0 30.582 29.308"><defs><style>.a{fill:#fff;}</style></defs><path class="a" d="M30.509,109.727c.006-.009.011-.018.016-.028l.016-.031.006-.012c0-.005,0-.011.006-.017s.008-.022.011-.033l.008-.031c0-.011,0-.021.006-.032s0-.021,0-.032,0-.022,0-.032,0-.022,0-.032,0-.021,0-.032,0-.021-.006-.032-.005-.021-.008-.031-.007-.022-.011-.032,0-.01-.005-.015l-.007-.014-.016-.03-.017-.028-.019-.026-.022-.027-.01-.012-6.389-6.487a.469.469,0,0,0-.04-.035l-.012-.009-.033-.022-.014-.008a.45.45,0,0,0-.044-.022l0,0a.529.529,0,0,0-.05-.018l-.015,0-.039-.008-.016,0a.42.42,0,0,0-.054,0H11.95a.449.449,0,1,0,0,.9h2.49l-3.555,5.215-3.239-5.215H9.912a.449.449,0,1,0,0-.9H6.8l-.02,0-.024,0-.019,0-.024.006-.019.006-.023.008-.02.008-.02.01-.02.011-.012.007-.007,0-.018.013-.019.014-.015.012-.02.018,0,0L.128,109.167l-.01.012-.023.027-.018.025c-.006.009-.012.019-.018.028s-.011.019-.015.029l-.007.014c0,.005,0,.011-.005.016s-.008.021-.011.032-.006.021-.009.032,0,.021-.006.031,0,.022,0,.033,0,.021,0,.032,0,.022,0,.033,0,.021,0,.031,0,.022.006.033,0,.02.008.03.007.022.011.033,0,.011.006.016l.006.012.016.031.016.027.019.027.021.026.008.01,8.334,8.887a.449.449,0,0,0,.656-.615l-7.624-8.131h9.04l3.838,13.733-3.833-4.087a.449.449,0,1,0-.656.615l5.087,5.424,0,0,0,0a.447.447,0,0,0,.045.04l.01.008a.476.476,0,0,0,.053.034l.01,0a.468.468,0,0,0,.052.023l.011,0a.428.428,0,0,0,.061.016l.014,0a.393.393,0,0,0,.132,0l.014,0a.416.416,0,0,0,.061-.015l.011,0a.45.45,0,0,0,.052-.023l.01,0a.455.455,0,0,0,.053-.034l.01-.008a.478.478,0,0,0,.045-.04l0,0,0,0L30.461,109.79l.008-.01.021-.027.019-.026Zm-18.791-.694,3.572-5.24,3.572,5.24Zm17.341,0H20.522l3.3-5.315Zm-6.124-5.588L19.7,108.66l-3.555-5.215Zm-16.179.273,3.3,5.315H1.521Zm12.365,6.215L15.29,123.64,11.46,109.933Zm-2.9,13.732,3.838-13.733H29.1Zm0,0" transform="translate(0 -96.451)"/><path class="a" d="M248.926,3.117a.449.449,0,0,0,.449-.449V.949a.449.449,0,1,0-.9,0V2.667A.449.449,0,0,0,248.926,3.117Zm0,0" transform="translate(-233.635 -0.5)"/><path class="a" d="M152.756,21.072a.449.449,0,0,0,.636-.636l-1.215-1.215a.449.449,0,1,0-.636.636Zm0,0" transform="translate(-142.366 -17.979)"/><path class="a" d="M325.656,21.2a.448.448,0,0,0,.318-.132l1.215-1.215a.449.449,0,0,0-.636-.636l-1.215,1.215a.449.449,0,0,0,.318.767Zm0,0" transform="translate(-305.782 -17.98)"/></svg>