<svg xmlns="http://www.w3.org/2000/svg" viewBox="0 0 42.61 42.61"><defs><style>.cls-1{fill:#fff;}</style></defs><title>download</title><g id="圖層_2" data-name="圖層 2"><g id="圖層_1-2" data-name="圖層 1"><g id="Group_517" data-name="Group 517"><g id="圖層_1-2-2" data-name="圖層 1-2"><path id="Path_21" data-name="Path 21" class="cls-1" d="M36.69,27.15v9.74H5.92V27.15H0v12.6a2.92,2.92,0,0,0,3,2.86H39.65a2.93,2.93,0,0,0,3-2.86V27.15Z"/><path id="Path_22" data-name="Path 22" class="cls-1" d="M20.76,26.19,12.3,16.26s-1.29-1.18.1-1.18h4.78V.7s-.2-.7.9-.7h6.71c.78,0,.78.59.78.59V14.81H30c1.7,0,.42,1.24.42,1.24s-7.2,9.25-8.21,10.22a1,1,0,0,1-1.36,0h0Z"/></g></g></g></g></svg>