<svg id="圖層_1" data-name="圖層 1" xmlns="http://www.w3.org/2000/svg" viewBox="0 0 490.65 490.7"><title>驚嘆號</title><path d="M189.34,280.4c0-136.7,112.61-247,248.8-245C572.48,37.29,680.94,148.65,680,281.89,679,418.15,566.17,528.7,429.82,526,296,523.35,188.69,412.83,189.34,280.4Zm40.61-.19C229.44,390.42,317.86,483.82,432,485.3a204.54,204.54,0,0,0,207.15-202c1.63-112.22-87.86-205.14-201-207.13C324.37,74.14,230.56,164.55,230,280.21Z" transform="translate(-189.34 -35.35)"/><path d="M474,186.23a273.84,273.84,0,0,1-9.12,62.5c-5.38,20.48-12.06,40.62-18.23,60.89a19.66,19.66,0,0,1-2.4,4.89c-5.52,8.42-15.69,8.73-20.71,0A81.06,81.06,0,0,1,416,295.1c-7.17-26.88-14.51-53.73-20.62-80.86-3.19-14.16-5-28.79-2.63-43.51,3.07-19.24,19.34-32.8,39.76-32.89,20.75-.09,37,13.29,40,33C473.26,176,473.48,181.12,474,186.23Z" transform="translate(-189.34 -35.35)"/><path d="M434.59,362.86c18-.22,30.36,11.83,30.73,30,.33,16.31-13.16,30.68-28.92,30.81-18.84.16-32.34-12.25-32.42-30.3C403.9,377.2,414.05,362.57,434.59,362.86Z" transform="translate(-189.34 -35.35)"/></svg>