<svg xmlns="http://www.w3.org/2000/svg" width="18.996" height="11.323" viewBox="0 0 18.996 11.323"><defs><style>.a{fill:#f2f2f2;}</style></defs><g transform="translate(0 -98.725)"><path class="a" d="M9.5,98.725c-3.629,0-6.921,1.986-9.349,5.211a.752.752,0,0,0,0,.9c2.429,3.229,5.72,5.215,9.349,5.215s6.921-1.986,9.349-5.211a.752.752,0,0,0,0-.9C16.419,100.711,13.127,98.725,9.5,98.725Zm.26,9.649a4,4,0,1,1,3.727-3.727A4,4,0,0,1,9.758,108.374Zm-.12-1.842a2.151,2.151,0,1,1,2.009-2.009A2.148,2.148,0,0,1,9.638,106.532Z" transform="translate(0)"/></g></svg>