<svg version="1.1" id="圖層_1"
    xmlns="http://www.w3.org/2000/svg"
    xmlns:xlink="http://www.w3.org/1999/xlink" width="1200" height="400" viewBox="200 150 200 250" xml:space="preserve">
    <defs>
        <style>.cls-1{fill:#fff}</style>
    </defs>
    <title>FB</title>
    <path class="cls-1" d="M407.7,165.7h-169c-7.5,0.3-9,1.5-11.7,8.5v175c2.7,7.8,4.5,9.2,12.8,9.5H326c7.3,0,7.3-0.1,7.3-7.1c0-21.8,0-43.6,0-65.4
	c0-2,0.2-4-0.8-5.9c-3-2.7-6.6-1.6-10-1.7c-14.7-0.3-12.8,2.2-13-13.6c-0.1-4.2,1.7-5.6,5.7-5.5c3.7,0.2,7.3,0.1,11,0
	c6.7-0.2,8.2-1.6,8.3-8.3c0.1-7.5-0.2-15,0.1-22.5c0.4-13.2,10-24.2,22.9-26.6c7.2-1.3,14.6-0.5,21.9-0.5c3,0,4.3,2,3.9,4.6
	c-0.5,4,2.2,8.7-2.3,11.9c-0.8,0.5-1.9,0.3-2.9,0.3c-2.8,0-5.7-0.1-8.5,0.2c-9.6,1-14.8,6.4-15.1,16c-0.2,6-0.2,12,0,18
	c0.1,5.6,1.3,6.7,6.8,6.9c5.2,0.2,10.3,0.1,15.5,0.1c3.1,0,4.5,1.4,4,4.6c-0.5,3.3-1,6.6-1.4,9.9c-0.3,3.1-1.9,4.4-4.9,4.4
	c-4.2,0-8.3-0.1-12.5,0c-6.5,0.1-7.7,1.1-7.7,7.5c-0.1,22.1-0.1,44.3,0,66.4c0,2.1-0.3,4.4,1.8,5.9c17.2,0.2,34.4,0,51.6,0.1
	c8.5-0.6,11.4-3.6,11.6-11.8c0-56.8,0-113.6,0-170.5C418.9,168.5,416,165.9,407.7,165.7z M413.8,342.5c0,7.6-2.3,9.9-9.7,9.9
	c-12.8,0-25.7-0.1-38.5,0.1c-3.1,0-3.9-0.8-3.8-3.9c0.1-19.7,0.1-39.3,0-59c0-2.8,0.6-3.8,3.5-3.6c5.5,0.2,11-0.1,16.5,0.1
	c2.8,0.1,4.1-0.4,4.4-3.6c0.9-9.1,2.2-18.2,3.5-27.2c0.4-2.6-0.1-3.5-2.9-3.4c-7,0.2-14-0.1-21,0.2c-3.4,0.1-4.3-1-4.1-4.3
	c0.3-4.2,0-8.3,0.1-12.5c0.2-6.3,2.5-8.7,8.8-9c5.5-0.2,11-0.3,16.5-0.1c2.9,0.1,3.6-0.9,3.6-3.7c-0.2-8-0.1-16,0-24
	c0-2.2-0.4-3.3-2.9-3.6c-10.1-1-20.3-1.9-30.4-0.4c-17.4,2.7-29.1,15.6-30.5,33.3c-0.5,6.8-0.4,13.7-0.3,20.5c0,2.8-0.7,3.8-3.6,3.7
	c-5.8-0.2-11.7,0-17.5-0.1c-2.3,0-3.6,0.2-3.5,3.2c0.2,9.3,0.2,18.7,0,28c0,2.4,0.7,3.2,3.1,3.1c5.8-0.1,11.7,0.1,17.5-0.1
	c2.9-0.1,4,0.5,4,3.8c-0.2,19.7-0.1,39.3,0,59c0,2.8-0.6,3.7-3.6,3.7c-27.3-0.1-54.7,0-82-0.1c-5.8,0-8.3-2.7-8.3-8.7
	c0-27.3,0-54.7,0-82c0-26.8,0-53.7,0-80.5c0-7.5,2.3-9.8,9.9-9.8h160.9c7.8,0,10.2,2.3,10.2,10.1
	C413.8,235.2,413.8,288.9,413.8,342.5z"/>
</svg>
