<svg id="圖層_1" data-name="圖層 1"
    xmlns="http://www.w3.org/2000/svg" viewBox="0 0 249.2 202.17">
    <defs>
        <style>.cls-1{fill:#fff;}</style>
    </defs>
    <title>images</title>
    <path class="cls-1" d="M433,399.28q-65.92,0-131.86.07c-3.12,0-4.26-.21-4.25-3.93q.23-97.14,0-194.29c0-3.71,1.13-3.94,4.25-3.93q65.43.17,130.86.08c.52,2.21-.86,3.82-1.81,5.53-3.07,5.54-6.31,11-9.27,16.57-15.09,28.56-26.1,58.32-26.93,91.14-.11,4.51,1.19,5.81,5.55,5.7,10-.24,20,.07,30-.12,4.38-.09,5.48,1.6,4.74,5.71-1.15,6.38-2,12.82-2.82,19.26-.92,7.46-.83,7.47-8,7.58-24.9.38-49.06-3.93-72.63-11.71-3.29-1.09-5.22-1-6.51,2.67s.68,4.68,3.5,5.64a222.59,222.59,0,0,0,50.15,10.88c9.63.94,19.31.44,28.92,1.58,2.47.3,4.11,1,4.35,3.76.92,10.8,3.2,21.39,5.2,32C437,396.55,436.57,398.77,433,399.28ZM369.68,245.47c0-2.49-.05-5,0-7.47.08-3-1.15-4.64-4.38-4.65s-5.15,1-5.16,4.5q0,7.22-.2,14.43c-.07,3.73,1.93,4.81,5.36,4.78,3.66,0,4.51-2,4.39-5.12C369.63,249.79,369.69,247.63,369.68,245.47Z" transform="translate(-296.89 -197.19)"/>
    <path class="cls-1" d="M445,197.28c32.5,0,65,.05,97.5-.09,3,0,3.59.6,3.58,3.59q-.17,97.5,0,195c0,3-.6,3.59-3.58,3.58-31.5-.14-63-.08-94.5-.08-4.84-11-6.3-22.7-7.72-34.44-.89-7.29-.47-7.85,6.85-9,15.32-2.33,30.48-5.42,45.19-10.38,4.38-1.48,5.43-4.39,2.92-7.46-1.92-2.36-4.25-1.29-6.41-.53a215.74,215.74,0,0,1-41.75,9.69c-7.1,1-8.1.15-7.14-6.82A245,245,0,0,1,445,313.92c1.57-6.25,1.58-6.31-4.58-6.37-9-.09-18,0-27-.09-10.63-.08-11.76,1.39-9.91-10.74.28-1.8.33-3.65.66-5.44C410.52,256.78,424.56,225.64,445,197.28Zm16.29,47.65c0,2.66,0,5.32,0,8s1.09,4,3.86,4.09,4.69-.68,4.72-3.76q.11-8,0-16c0-3-1.9-4-4.65-3.9s-3.93,1.44-3.93,4.06S461.3,242.43,461.29,244.93Z" transform="translate(-296.89 -197.19)"/>
</svg>
