<svg id="圖層_1" data-name="圖層 1"
    xmlns="http://www.w3.org/2000/svg" viewBox="0 0 35.54 31.9">
    <defs>
        <style>.cls-1{fill:#fff}</style>
    </defs>
    <title>遊戲鈕</title>
    <path class="cls-1" d="M456.23,308.6h0a3.77,3.77,0,0,1-1.89-.44c-1.08-.64-1.19-2-1.31-3.6a9.49,9.49,0,0,0-.9-4c-1.2-2.05-6.08-4.94-8.43-5h0a9.5,9.5,0,0,0-3.8,1.1,7.52,7.52,0,0,1-2.81.86,2.25,2.25,0,0,1-1.14-.29c-3-1.77-3.2-11.13-1-14.87a8.42,8.42,0,0,1,15.66,4.67l5.61,3.32a8.6,8.6,0,0,1,8.66-.06,8.44,8.44,0,0,1,3,11.54C466,305.08,459.87,308.6,456.23,308.6Zm-12.62-15.08h.14c3,.07,8.64,3.39,10.18,6a11,11,0,0,1,1.17,4.84,6.38,6.38,0,0,0,.34,2,1.93,1.93,0,0,0,.79.13c2.66,0,8.19-2.95,9.82-5.71a6.35,6.35,0,0,0-2.22-8.68,6.47,6.47,0,0,0-7,.33l-.55.4-7.91-4.68.08-.68a6.34,6.34,0,0,0-11.74-4c-2,3.33-1.21,11.13.26,12a6.18,6.18,0,0,0,2-.68A11.39,11.39,0,0,1,443.61,293.52Z" transform="translate(-433.48 -276.7)"/>
    <path class="cls-1" d="M445.66,289.57a1.31,1.31,0,0,1-1.79.47l-1.55-.92-1.15,1.95a1.31,1.31,0,0,1-2.26-1.34l1.15-2-1.68-1a1.31,1.31,0,0,1,1.34-2.26l1.68,1,1.15-1.95a1.31,1.31,0,0,1,2.26,1.33l-1.15,1.95,1.54.92A1.3,1.3,0,0,1,445.66,289.57Z" transform="translate(-433.48 -276.7)"/>
    <path class="cls-1" d="M456.05,296.11a1.36,1.36,0,1,1,2.34,1.38,1.36,1.36,0,1,1-2.34-1.38Z" transform="translate(-433.48 -276.7)"/>
    <path class="cls-1" d="M459.68,302.09a1.36,1.36,0,1,1-.48-1.86A1.36,1.36,0,0,1,459.68,302.09Z" transform="translate(-433.48 -276.7)"/>
    <path class="cls-1" d="M460.89,294.71a1.36,1.36,0,1,1,.48,1.86A1.36,1.36,0,0,1,460.89,294.71Z" transform="translate(-433.48 -276.7)"/>
    <path class="cls-1" d="M464.34,301a1.36,1.36,0,1,1-2.34-1.38,1.36,1.36,0,1,1,2.34,1.38Z" transform="translate(-433.48 -276.7)"/>
    <path class="cls-1" d="M453.8,287.79h0a.8.8,0,0,0,.48.12.85.85,0,0,0,.8-.89c-.09-1.64.13-2.74.64-3.28s1.52-.58,2.66-.57c1.33,0,2.83,0,3.86-1.1.85-.91,1.19-2.4,1-4.57a.84.84,0,0,0-.92-.79.64.64,0,0,0-.23.05.83.83,0,0,0-.55.85c.11,1.65-.08,2.76-.58,3.29s-1.54.57-2.62.56c-1.33,0-2.84,0-3.89,1.11-.86.9-1.23,2.39-1.11,4.54A.82.82,0,0,0,453.8,287.79Z" transform="translate(-433.48 -276.7)"/>
</svg>
