<svg xmlns="http://www.w3.org/2000/svg" width="33.176" height="33.386" viewBox="0 0 33.176 33.386"><defs><style>.a{fill:#fff;}</style></defs><path class="a" d="M33.177,15.234l-4.966-4.611V3.069h-5.72V5.312L16.771,0,.365,15.234a.572.572,0,1,0,.779.839l1.9-1.763V33.386H30.5V14.309l1.9,1.763a.572.572,0,0,0,.779-.838ZM23.635,4.213h3.432V9.561L23.635,6.374Zm-10.3,28.029V20.193a.536.536,0,0,1,.536-.536h5.792a.536.536,0,0,1,.536.536V32.242H13.339Zm16.016,0H21.347V20.193a1.682,1.682,0,0,0-1.68-1.68H13.875a1.682,1.682,0,0,0-1.68,1.68V32.242H4.186V13.247L16.771,1.561l8.168,7.585,3.272,3.038h0l1.144,1.062Z" transform="translate(-0.183)"/></svg>