<svg xmlns="http://www.w3.org/2000/svg" viewBox="0 0 13.2 14.98"><defs><style>.cls-1{fill:#fff;}</style></defs><title>html</title><g id="圖層_2" data-name="圖層 2"><g id="圖層_1-2" data-name="圖層 1"><g id="Group_522" data-name="Group 522"><path id="Path_118" data-name="Path 118" class="cls-1" d="M.23,0A.22.22,0,0,0,0,.23v0l1.16,13a.4.4,0,0,0,.27.32L6.35,15a1.35,1.35,0,0,0,.49,0l4.94-1.37a.39.39,0,0,0,.26-.32L13.2.25A.22.22,0,0,0,13,0H.23Zm10.5,3c0,.13,0,.34,0,.47l0,.35c0,.13,0,.33,0,.43l0,.19H4.51a.22.22,0,0,0-.23.22v0l.11,1.2a.28.28,0,0,0,.27.25h5.57a.2.2,0,0,1,.2.2v0c0,.12,0,.33,0,.47L10,10.69c0,.13,0,.31,0,.39s-.12.17-.26.21l-2.91.8-.24.07-.25-.07-2.91-.81A.38.38,0,0,1,3.17,11L3,8.86a.21.21,0,0,1,.2-.24H4.38a.28.28,0,0,1,.27.25l.07.83A.39.39,0,0,0,5,10l1.36.37.24.07.25-.07L8.2,10a.39.39,0,0,0,.27-.31L8.61,8a.21.21,0,0,0-.2-.24H3.14a.28.28,0,0,1-.27-.25L2.5,3.46c0-.13,0-.34,0-.47a.21.21,0,0,1,.21-.22H10.5a.21.21,0,0,1,.23.19V3Z"/></g></g></g></svg>