<svg xmlns="http://www.w3.org/2000/svg" width="29.219" height="29.219" viewBox="0 0 29.219 29.219"><defs><style>.a{fill:#fff;}</style></defs><path class="a" d="M14.61,0a14.61,14.61,0,1,0,14.61,14.61A14.6,14.6,0,0,0,14.61,0Zm0,27.271A12.662,12.662,0,1,1,27.271,14.61,12.676,12.676,0,0,1,14.61,27.271Z"/><g transform="translate(13.636 11.972)"><path class="a" d="M239.9,209.777a.974.974,0,0,0-.974.974v8.216a.974.974,0,0,0,1.948,0v-8.216A.974.974,0,0,0,239.9,209.777Z" transform="translate(-238.93 -209.777)"/></g><g transform="translate(12.662 7.084)"><path class="a" d="M223.815,124.122a1.948,1.948,0,1,0,1.948,1.948A1.95,1.95,0,0,0,223.815,124.122Z" transform="translate(-221.867 -124.122)"/></g></svg>