<svg id="圖層_1" data-name="圖層 1"
    xmlns="http://www.w3.org/2000/svg" viewBox="0 0 352.83 352.83">
    <defs>
        <style>.cls-1{fill:#8E8E8E}</style>

    </defs>
    <title>關於</title>
    <path class="cls-1" d="M421.55,122.56A176.44,176.44,0,0,1,597.93,299c0,97.47-79.15,176.58-176.58,176.44a176.43,176.43,0,0,1-176.25-177C245.2,201.42,324.38,122.52,421.55,122.56ZM573.67,299A152.16,152.16,0,1,0,421.59,451.13,152.08,152.08,0,0,0,573.67,299Z" transform="translate(-245.1 -122.56)"/>
    <path class="cls-1" d="M438.19,257.75V421.09H403.94V257.75Z" transform="translate(-245.1 -122.56)"/>
    <path class="cls-1" d="M421.07,232.81c-11.54,0-19.89-8.3-19.94-19.83-.05-11.71,8.33-20.15,20.12-20.27,11.63-.12,20,8.4,20,20.29C441.21,224.68,432.94,232.8,421.07,232.81Z" transform="translate(-245.1 -122.56)"/>
</svg>
