<svg id="圖層_1" data-name="圖層 1" xmlns="http://www.w3.org/2000/svg" viewBox="0 0 306.85 374.43"><title>蘋果</title><path d="M565.49,240.32C507.72,274,512,357.17,574.58,383c-2.16,5.89-4.17,11.91-6.55,17.77-8.74,21.47-21.09,40.87-35.75,58.64-8.27,10-17.65,19.11-30.77,23.41-12.19,4-23.54,2-35.1-2.14-9.67-3.48-19.43-7-29.42-9.26-13.49-3.1-26.47.22-39,5.55-9.52,4.06-19,8.11-29.63,8.51-12.77.49-23.22-4.9-32-13.25-24.84-23.69-42.22-52.35-54.32-84.33a222.36,222.36,0,0,1-13-53c-3.14-27-1.25-53.51,10.76-78.38,13-26.84,33.71-45.07,62.63-53.07,17.79-4.92,35.23-2.69,52.23,4.42,7.53,3.15,15.34,5.72,23.16,8.14,8.13,2.53,15.36-1.41,22.8-3.85,11.82-3.89,23.59-8,35.63-11.08s24.15-1.16,36.06,1.66c18.22,4.33,33.36,13.8,45.67,27.82C560.6,233.56,562.82,236.83,565.49,240.32Z" transform="translate(-267.73 -111.09)"/><path d="M497.1,111.17c3.16,19.34-2.49,36.23-11.6,52.27a78.64,78.64,0,0,1-33,31.64c-9.37,4.8-19.43,7.91-30.32,7.46-3.91-.16-5.08-1.61-5.34-5.24-1.12-15.72,3.47-30,11.14-43.35,12.36-21.44,31-34.79,54.8-41.22a54.87,54.87,0,0,1,7.72-1.52A59.12,59.12,0,0,1,497.1,111.17Z" transform="translate(-267.73 -111.09)"/></svg>