<svg xmlns="http://www.w3.org/2000/svg" width="65.045" height="18.57" viewBox="0 0 65.045 18.57">
    <defs>
        <style>.a{fill:#00c43e;}.b{fill:#fff;}</style>
    </defs>
    <g transform="translate(-13.2 -30.3)">
        <g transform="translate(13.2 30.3)">
            <path class="a" d="M385.683,116.885h1.934V115.6h-1.959a.651.651,0,0,0-.636.774A.671.671,0,0,0,385.683,116.885Z" transform="translate(-338.609 -104.955)"/>
            <path class="a" d="M22.46,48.87h46.5a9.285,9.285,0,0,0,0-18.57H22.46a9.285,9.285,0,0,0,0,18.57ZM64.729,36.827h1.348a.367.367,0,0,1,.337.225l1.3,3.245,1.36-3.257a.367.367,0,0,1,.337-.225h1.448a.233.233,0,0,1,.212.324s-2.983,7.1-3.494,8.324a.287.287,0,0,1-.275.175H65.815a.233.233,0,0,1-.212-.324l1.073-2.558-2.221-5.541A.282.282,0,0,1,64.729,36.827ZM57.99,41.432a2.32,2.32,0,0,1,2.346-2.109H62.2a.828.828,0,0,0-.324-.674c-.3-.237-1-.424-2.608-.062a.378.378,0,0,1-.437-.262l-.225-.874a.355.355,0,0,1,.262-.437c1.26-.287,2.908-.487,3.994.349a2.673,2.673,0,0,1,.961,2.234v3.894a.362.362,0,0,1-.362.362h-3.22A2.272,2.272,0,0,1,57.99,41.432Zm-6.926-6.1h0a.3.3,0,0,1,.3-.3h2.858a3.332,3.332,0,1,1,0,6.664H52.985v1.859a.3.3,0,0,1-.3.3H51.363a.3.3,0,0,1-.3-.3Zm-9.235,0a.342.342,0,0,1,.087-.225.354.354,0,0,1,.212-.087h5.291a.3.3,0,0,1,.3.3V36.64a.3.3,0,0,1-.3.3H43.763v1.51h3.657a.3.3,0,0,1,.3.3v1.323a.3.3,0,0,1-.3.3H43.763v1.51h3.657a.3.3,0,0,1,.3.3V43.5a.3.3,0,0,1-.3.3H42.128a.292.292,0,0,1-.212-.087L41.9,43.7a.354.354,0,0,1-.087-.212V35.329Zm-9.16,0a.3.3,0,0,1,.3-.3h1.3l.062.012.087.037a.044.044,0,0,0,.025.012l.025.025c.012,0,.012.012.025.025s.012.025.025.037l3.931,5.291V35.354a.3.3,0,0,1,.3-.3h1.323a.3.3,0,0,1,.3.3v8.224a.3.3,0,0,1-.3.3H38.8a.244.244,0,0,1-.087-.012c-.012,0-.012,0-.025-.012l-.062-.037c-.025-.025-.062-.05-.075-.075L34.6,38.374v5.167a.3.3,0,0,1-.3.3H32.98a.3.3,0,0,1-.3-.3V35.329Zm-3.382,0a.3.3,0,0,1,.3-.3h1.323a.3.3,0,0,1,.3.3v8.224a.3.3,0,0,1-.3.3H29.586a.3.3,0,0,1-.3-.3Zm-7.151,0a.3.3,0,0,1,.3-.3h1.323a.3.3,0,0,1,.3.3v6.589h3.657a.3.3,0,0,1,.3.3v1.323a.3.3,0,0,1-.3.3H22.435a.3.3,0,0,1-.225-.1.354.354,0,0,1-.087-.212v-8.2Z" transform="translate(-13.2 -30.3)"/>
            <path class="a" d="M334.721,85a1.4,1.4,0,0,0-1.4-1.4H332.1v2.8h1.236A1.393,1.393,0,0,0,334.721,85Z" transform="translate(-292.302 -76.948)"/>
        </g>
        <path class="b" d="M142.4,77.023h1.323a.3.3,0,0,0,.3-.3V68.5a.3.3,0,0,0-.3-.3H142.4a.3.3,0,0,0-.3.3v8.224A.3.3,0,0,0,142.4,77.023Z" transform="translate(-112.814 -33.17)"/>
        <path class="b" d="M169.424,76.848h1.323a.3.3,0,0,0,.3-.3V71.37l3.931,5.341.075.075.062.037a.044.044,0,0,1,.025.012.244.244,0,0,0,.087.012H176.5a.3.3,0,0,0,.3-.3V68.324a.3.3,0,0,0-.3-.3h-1.323a.3.3,0,0,0-.3.3v5.117l-3.931-5.291c-.012-.012-.012-.025-.025-.037l-.025-.025-.025-.025c-.012-.012-.012-.012-.025-.012l-.087-.037L170.7,68h-1.3a.3.3,0,0,0-.3.3v8.224A.33.33,0,0,0,169.424,76.848Z" transform="translate(-136.444 -32.995)"/>
        <path class="b" d="M85.1,77.023h5.291a.3.3,0,0,0,.3-.3V75.4a.3.3,0,0,0-.3-.3H86.734V68.5a.3.3,0,0,0-.3-.3H85.1a.3.3,0,0,0-.3.3v8.212a.292.292,0,0,0,.087.212A.308.308,0,0,0,85.1,77.023Z" transform="translate(-62.665 -33.17)"/>
        <path class="b" d="M242.687,76.936a.3.3,0,0,0,.212.087h5.291a.3.3,0,0,0,.3-.3V75.4a.3.3,0,0,0-.3-.3h-3.657v-1.51h3.657a.3.3,0,0,0,.3-.3V71.944a.3.3,0,0,0-.3-.3h-3.657V70.122h3.657a.3.3,0,0,0,.3-.3V68.5a.3.3,0,0,0-.3-.3H242.9a.292.292,0,0,0-.212.087.3.3,0,0,0-.087.225v8.212a.292.292,0,0,0,.087.212Z" transform="translate(-200.772 -33.17)"/>
        <path class="b" d="M374.4,89.044h3.22a.362.362,0,0,0,.362-.362V84.776a2.691,2.691,0,0,0-.961-2.234c-1.086-.849-2.733-.649-3.994-.349a.357.357,0,0,0-.262.437l.225.874a.371.371,0,0,0,.437.262c1.61-.362,2.309-.175,2.608.062a.9.9,0,0,1,.324.674H374.5a2.328,2.328,0,0,0-2.346,2.109A2.261,2.261,0,0,0,374.4,89.044Zm0-2.908h1.959v1.285h-1.934a.671.671,0,0,1-.661-.512A.651.651,0,0,1,374.4,86.136Z" transform="translate(-314.152 -45.191)"/>
        <path class="b" d="M425.977,88.64,424.9,91.2a.236.236,0,0,0,.212.324H426.6a.307.307,0,0,0,.275-.175c.512-1.235,3.494-8.324,3.494-8.324a.236.236,0,0,0-.212-.324H428.71a.367.367,0,0,0-.337.225l-1.36,3.245-1.3-3.245a.354.354,0,0,0-.337-.225H424.03a.3.3,0,0,0-.275.412Z" transform="translate(-359.301 -45.861)"/>
        <path class="b" d="M316.9,77.023h1.323a.3.3,0,0,0,.3-.3V74.864h1.236a3.332,3.332,0,0,0,0-6.664H316.9a.3.3,0,0,0-.3.3h0v8.212A.306.306,0,0,0,316.9,77.023Zm1.635-6.9h1.223a1.4,1.4,0,0,1,0,2.8h-1.236v-2.8Z" transform="translate(-265.536 -33.17)"/>
    </g>
</svg>
