<svg id="圖層_1" data-name="圖層 1"
    xmlns="http://www.w3.org/2000/svg" viewBox="0 0 29.57 40.75">
    <defs>
        <style>.cls-1{fill:#fff}</style>
    </defs>
    <title>登入鈕</title>
    <path class="cls-1" d="M423,263.28c4.65,7.26,4.39,10.45-1.68,18.47,2,.86,3.94,1.6,5.81,2.53,5.5,2.72,8.27,10,5.48,15.31a6.42,6.42,0,0,1-4.67,2.68c-6.3.31-12.62.08-18.93.15-3.09,0-4.23-1.26-4.65-4.4-1.24-9,2.75-14.2,12.24-16.1-6.24-5.38-6.7-10.91-3.72-16.71.34-.64.71-1.29,1.12-1.93Z" transform="translate(-404.14 -261.68)"/>
    <path class="cls-1" d="M424,265.81c.57,2.7-2.15,4.64-5.29,4.64s-6.13-2.25-5.68-5.07,2.71-3.7,5.85-3.7S423.45,263,424,265.81Z" transform="translate(-404.14 -261.68)"/>
</svg>
