<svg xmlns="http://www.w3.org/2000/svg" xmlns:xlink="http://www.w3.org/1999/xlink" viewBox="0 0 1208.8 250.68"><defs><style>.a{fill:none;}.b{fill:#fff;}.c{fill:url(#a);}.d{fill:url(#b);}.e{clip-path:url(#c);}.f{fill:url(#d);}.g{fill:url(#e);}.h{fill:url(#f);}.i{fill:url(#g);}.j{fill:url(#h);}.k{fill:url(#i);}.l{fill:url(#j);}.m{fill:url(#k);}.n{fill:url(#l);}.o{fill:url(#m);}.p{fill:url(#n);}.q{fill:url(#o);}.r{fill:url(#p);}.s{fill:url(#q);}.t{fill:url(#r);}.u{fill:url(#s);}</style><linearGradient id="a" y1="-1776.37" x2="264.97" y2="-1776.37" gradientTransform="matrix(1, 0, 0, -1, 0, -1644.9)" gradientUnits="userSpaceOnUse"><stop offset="0" stop-color="#0051b5"/><stop offset="1" stop-color="#00b1e6"/></linearGradient><linearGradient id="b" x1="191.76" y1="-1770.24" x2="470.44" y2="-1770.24" xlink:href="#a"/><clipPath id="c"><polygon class="a" points="749.9 269.55 505.9 269.55 505.9 33.55 843.9 33.55 749.9 269.55"/></clipPath><linearGradient id="d" x1="565.84" y1="50.55" x2="565.84" y2="261.42" gradientUnits="userSpaceOnUse"><stop offset="0" stop-color="#69a5e0"/><stop offset="1" stop-color="#00b1e6"/></linearGradient><linearGradient id="e" x1="615.05" y1="50.55" x2="615.05" y2="261.42" xlink:href="#d"/><linearGradient id="f" x1="668.73" y1="50.55" x2="668.73" y2="261.42" xlink:href="#d"/><linearGradient id="g" x1="733.96" y1="50.55" x2="733.96" y2="261.42" xlink:href="#d"/><linearGradient id="h" x1="805" y1="50.55" x2="805" y2="261.42" xlink:href="#d"/><linearGradient id="i" x1="884.51" y1="50.55" x2="884.51" y2="261.42" xlink:href="#d"/><linearGradient id="j" x1="945.47" y1="50.55" x2="945.47" y2="261.42" xlink:href="#d"/><linearGradient id="k" x1="1036.21" y1="50.55" x2="1036.21" y2="261.42" xlink:href="#d"/><linearGradient id="l" x1="1108.7" y1="50.55" x2="1108.7" y2="261.42" xlink:href="#d"/><linearGradient id="m" x1="1180.63" y1="50.55" x2="1180.63" y2="261.42" xlink:href="#d"/><linearGradient id="n" x1="570.88" y1="50.55" x2="570.88" y2="261.42" xlink:href="#d"/><linearGradient id="o" x1="642.8" y1="50.55" x2="642.8" y2="261.42" xlink:href="#d"/><linearGradient id="p" x1="720.7" y1="50.55" x2="720.7" y2="261.42" xlink:href="#d"/><linearGradient id="q" x1="782.29" y1="50.55" x2="782.29" y2="261.42" xlink:href="#d"/><linearGradient id="r" x1="839.19" y1="50.55" x2="839.19" y2="261.42" xlink:href="#d"/><linearGradient id="s" x1="915.85" y1="50.55" x2="915.85" y2="261.42" xlink:href="#d"/></defs><title>logo</title><path class="b" d="M536,67.17h10.08l12.37,36.45c2.7,7.9,4.47,14.32,7.38,22.22h.42c2.81-7.9,4.68-14.32,7.38-22.22L585.9,67.17h9.77l-24.22,67.3H560.33Z"/><path class="b" d="M610.22,67.17h9.67v67.3h-9.67Z"/><path class="b" d="M640.46,100.86c0-21.76,14.45-35,33.78-35a29.83,29.83,0,0,1,20.89,8.36l-5.2,5.51a22,22,0,0,0-15.59-6.43c-14.45,0-24,10.47-24,27.27,0,17,9.15,27.64,23.7,27.64,7.28,0,12.78-2.85,17.67-7.53L697,126c-6,6.15-13.51,9.64-23.39,9.64C654.7,135.66,640.46,122.71,640.46,100.86Z"/><path class="b" d="M729.12,74.33H706V67.17h55.82v7.16H738.79v60.14h-9.67Z"/><path class="b" d="M772.46,100.59c0-21.58,13.41-34.71,32.53-34.71S837.53,79,837.53,100.59,824.12,135.66,805,135.66,772.46,122.16,772.46,100.59Zm55.19,0c0-16.89-9-27.27-22.66-27.27s-22.66,10.37-22.66,27.27,8.94,27.64,22.66,27.64S827.66,117.39,827.66,100.59Z"/><path class="b" d="M900,134.47l-18.5-28.55H867.78v28.55h-9.67V67.17H882c15.49,0,26.61,4.87,26.61,18.91,0,10.47-6.86,16.71-17.25,18.91l19.54,29.47ZM867.78,99h12.79c12,0,18.5-4.22,18.5-12.95,0-8.91-6.55-12-18.5-12H867.78Z"/><path class="b" d="M940.64,108.3,917.77,67.17h10.29l9.77,19c2.5,5,4.78,9.64,7.48,14.69h.42c2.7-5,5.3-9.73,7.59-14.69l9.88-19h10L950.3,108.3v26.17h-9.67Z"/><path class="b" d="M1050,113.9h-27.86l-7.38,20.57H1005l25.88-67.3h10.71l25.88,67.3h-10.19Zm-2.39-6.79L1044,96.82c-2.81-7.62-5.2-15-7.69-22.77h-.42c-2.39,7.9-4.88,15.15-7.59,22.77l-3.74,10.28Z"/><path class="b" d="M1124.19,134.47l-18.5-28.55H1092v28.55h-9.67V67.17h23.91c15.49,0,26.61,4.87,26.61,18.91,0,10.47-6.86,16.71-17.25,18.91l19.54,29.47ZM1092,99h12.79c12,0,18.5-4.22,18.5-12.95,0-8.91-6.55-12-18.5-12H1092Z"/><path class="b" d="M1152.46,67.17h9.67V101h.31l31.81-33.79h10.81l-23.8,25.62,27.54,41.68H1198l-22.76-35.07-13.1,13.77v21.3h-9.67Z"/><path class="b" d="M541.93,200.29c0-21.76,14.76-35,34.92-35,10.6,0,17.57,4.22,21.93,8.36l-5.2,5.51a22.67,22.67,0,0,0-16.53-6.43c-15.28,0-25.26,10.47-25.26,27.27,0,17,9,27.64,25.36,27.64,5.51,0,10.81-1.47,13.82-3.95V206.08H574.88V199h24.95v28.28c-4.89,4.5-13.3,7.8-23.59,7.8C556.17,235.09,541.93,222.14,541.93,200.29Z"/><path class="b" d="M656.57,213.33H628.72l-7.38,20.57h-9.77l25.88-67.3h10.71L674,233.9H663.85Zm-2.39-6.79-3.64-10.28c-2.81-7.62-5.2-15-7.69-22.77h-.42c-2.39,7.9-4.89,15.15-7.59,22.77l-3.74,10.28Z"/><path class="b" d="M688.9,166.6h11.64l14.66,36c1.77,4.68,3.53,9.36,5.41,14h.52c1.77-4.68,3.43-9.37,5.2-14l14.55-36h11.64v67.3h-9V196.62c0-5.78.73-14,1.25-19.83h-.42l-6,15.33-14.45,35h-6.44l-14.45-35-6-15.33h-.42c.42,5.88,1.14,14,1.14,19.83V233.9H688.9Z"/><path class="b" d="M777.45,166.6h9.67v67.3h-9.67Z"/><path class="b" d="M812.06,166.6h10L849.8,209l8.11,13.86h.52c-.52-6.79-1.25-14.32-1.25-21.3v-35h9.15v67.3h-9.87L828.7,191.39l-8.21-13.86h-.42c.42,6.79,1.14,14,1.14,21V233.9h-9.15Z"/><path class="b" d="M886.9,200.29c0-21.76,14.76-35,34.92-35,10.6,0,17.57,4.22,21.93,8.36l-5.2,5.51A22.67,22.67,0,0,0,922,172.75c-15.28,0-25.26,10.47-25.26,27.27,0,17,9,27.64,25.36,27.64,5.51,0,10.81-1.47,13.82-3.95V206.08H919.85V199h24.95v28.28c-4.89,4.5-13.3,7.8-23.59,7.8C901.14,235.09,886.9,222.14,886.9,200.29Z"/><path class="c" d="M36.69,12.33,115.44,208l1.69,4.28a12,12,0,0,0,4.28,5.22,16,16,0,0,0,11.08,4,18.25,18.25,0,0,0,11.67-4,12.49,12.49,0,0,0,3.42-4.28l.55-1.41a3.12,3.12,0,0,1,.27-1.18l1.14-2.63L228,12.33h37L181.39,220.12a39.77,39.77,0,0,1-12.8,18.11q-14.79,12.37-36.1,12.37-21,0-35.82-12.37a42.54,42.54,0,0,1-11.39-14.3H85L0,12.33Zm90.69,196.59L114,175.34l-65.4-163H85l47.17,117.48L179.7,12.33h36.1L145.57,187.71l-8.52,21a5.73,5.73,0,0,1-1.41,2.4,5.54,5.54,0,0,1-6.83,0A10.26,10.26,0,0,1,127.38,208.92Z"/><path class="d" d="M431.87,250.64h38.57L381,28.08h-.31a44.46,44.46,0,0,0-11.94-15Q353.23,0,331.12,0q-22.45,0-38,13a42.26,42.26,0,0,0-13.47,19.05L191.76,250.64h38.89l20.66-51.49h12.8l-20.62,51.49h38l49.92-123.53,15.36,38.26H334.1L322,199.18h38.38L381,250.68h38.26L398.6,199.18h12.49Zm-46.78-85.31-34.53-86.1L336.5,43.87A9.68,9.68,0,0,0,335,41.64a5.44,5.44,0,0,0-3.57-1.26,5.36,5.36,0,0,0-3.57,1.26,5.69,5.69,0,0,0-1.49,2.51l-9,22-39.75,99.14h-12.8L313.17,44.9l1.18-2.75a3.65,3.65,0,0,0,.31-1.26l.59-1.49a13.39,13.39,0,0,1,3.57-4.52,19.21,19.21,0,0,1,12.25-4.24,16.93,16.93,0,0,1,11.67,4.24,13.13,13.13,0,0,1,4.48,5.5L349,44.9,397.5,165.32Z"/><g class="e"><path class="f" d="M536,67.17h10.08l12.37,36.45c2.7,7.9,4.47,14.32,7.38,22.22h.42c2.81-7.9,4.68-14.32,7.38-22.22L585.9,67.17h9.77l-24.22,67.3H560.33Z"/><path class="g" d="M610.22,67.17h9.67v67.3h-9.67Z"/><path class="h" d="M640.46,100.86c0-21.76,14.45-35,33.78-35a29.83,29.83,0,0,1,20.89,8.36l-5.2,5.51a22,22,0,0,0-15.59-6.43c-14.45,0-24,10.47-24,27.27,0,17,9.15,27.64,23.7,27.64,7.28,0,12.78-2.85,17.67-7.53L697,126c-6,6.15-13.51,9.64-23.39,9.64C654.7,135.66,640.46,122.71,640.46,100.86Z"/><path class="i" d="M729.12,74.33H706V67.17h55.82v7.16H738.79v60.14h-9.67Z"/><path class="j" d="M772.46,100.59c0-21.58,13.41-34.71,32.53-34.71S837.53,79,837.53,100.59,824.12,135.66,805,135.66,772.46,122.16,772.46,100.59Zm55.19,0c0-16.89-9-27.27-22.66-27.27s-22.66,10.37-22.66,27.27,8.94,27.64,22.66,27.64S827.66,117.39,827.66,100.59Z"/><path class="k" d="M900,134.47l-18.5-28.55H867.78v28.55h-9.67V67.17H882c15.49,0,26.61,4.87,26.61,18.91,0,10.47-6.86,16.71-17.25,18.91l19.54,29.47ZM867.78,99h12.79c12,0,18.5-4.22,18.5-12.95,0-8.91-6.55-12-18.5-12H867.78Z"/><path class="l" d="M940.64,108.3,917.77,67.17h10.29l9.77,19c2.5,5,4.78,9.64,7.48,14.69h.42c2.7-5,5.3-9.73,7.59-14.69l9.88-19h10L950.3,108.3v26.17h-9.67Z"/><path class="m" d="M1050,113.9h-27.86l-7.38,20.57H1005l25.88-67.3h10.71l25.88,67.3h-10.19Zm-2.39-6.79L1044,96.82c-2.81-7.62-5.2-15-7.69-22.77h-.42c-2.39,7.9-4.88,15.15-7.59,22.77l-3.74,10.28Z"/><path class="n" d="M1124.19,134.47l-18.5-28.55H1092v28.55h-9.67V67.17h23.91c15.49,0,26.61,4.87,26.61,18.91,0,10.47-6.86,16.71-17.25,18.91l19.54,29.47ZM1092,99h12.79c12,0,18.5-4.22,18.5-12.95,0-8.91-6.55-12-18.5-12H1092Z"/><path class="o" d="M1152.46,67.17h9.67V101h.31l31.81-33.79h10.81l-23.8,25.62,27.54,41.68H1198l-22.76-35.07-13.1,13.77v21.3h-9.67Z"/><path class="p" d="M541.93,200.29c0-21.76,14.76-35,34.92-35,10.6,0,17.57,4.22,21.93,8.36l-5.2,5.51a22.67,22.67,0,0,0-16.53-6.43c-15.28,0-25.26,10.47-25.26,27.27,0,17,9,27.64,25.36,27.64,5.51,0,10.81-1.47,13.82-3.95V206.08H574.88V199h24.95v28.28c-4.89,4.5-13.3,7.8-23.59,7.8C556.17,235.09,541.93,222.14,541.93,200.29Z"/><path class="q" d="M656.57,213.33H628.72l-7.38,20.57h-9.77l25.88-67.3h10.71L674,233.9H663.85Zm-2.39-6.79-3.64-10.28c-2.81-7.62-5.2-15-7.69-22.77h-.42c-2.39,7.9-4.89,15.15-7.59,22.77l-3.74,10.28Z"/><path class="r" d="M688.9,166.6h11.64l14.66,36c1.77,4.68,3.53,9.36,5.41,14h.52c1.77-4.68,3.43-9.37,5.2-14l14.55-36h11.64v67.3h-9V196.62c0-5.78.73-14,1.25-19.83h-.42l-6,15.33-14.45,35h-6.44l-14.45-35-6-15.33h-.42c.42,5.88,1.14,14,1.14,19.83V233.9H688.9Z"/><path class="s" d="M777.45,166.6h9.67v67.3h-9.67Z"/><path class="t" d="M812.06,166.6h10L849.8,209l8.11,13.86h.52c-.52-6.79-1.25-14.32-1.25-21.3v-35h9.15v67.3h-9.87L828.7,191.39l-8.21-13.86h-.42c.42,6.79,1.14,14,1.14,21V233.9h-9.15Z"/><path class="u" d="M886.9,200.29c0-21.76,14.76-35,34.92-35,10.6,0,17.57,4.22,21.93,8.36l-5.2,5.51A22.67,22.67,0,0,0,922,172.75c-15.28,0-25.26,10.47-25.26,27.27,0,17,9,27.64,25.36,27.64,5.51,0,10.81-1.47,13.82-3.95V206.08H919.85V199h24.95v28.28c-4.89,4.5-13.3,7.8-23.59,7.8C901.14,235.09,886.9,222.14,886.9,200.29Z"/></g></svg>