<svg id="圖層_1" data-name="圖層 1"
    xmlns="http://www.w3.org/2000/svg" viewBox="0 0 389.02 354.95">
    <defs>
        <style>.cls-1{fill:#fff;}</style>
    </defs>
    <title>愛心</title>
    <path class="cls-1" d="M198.47,234a97.77,97.77,0,0,1,9.64-45.9c14.56-30.06,38.43-48.58,71.2-54.62,39.25-7.24,71.85,5.81,98.61,34.7a117.9,117.9,0,0,1,14,18.72c1,1.69,1,1.69,2.11,0,10.42-16.76,23.7-30.69,40.73-40.85A100.15,100.15,0,0,1,495,131.81c21.47,1.62,40.7,9,57.25,22.87,17.34,14.54,28.06,33.1,32.91,55.14,2.66,12.12,2.54,24.39,1.9,36.68-1,19.69-4.5,38.85-12.39,57.06-6.4,14.78-15.3,27.94-25.7,40.14C535.85,359,521.09,372.67,506,386c-25.41,22.53-51.4,44.4-76.62,67.14-11.87,10.71-23.64,21.52-35.19,32.57-1,1-1.54.93-2.54,0-24.56-23.38-49.94-45.85-75.54-68.08-21.66-18.81-43.69-37.22-64-57.55-13.55-13.57-25.95-28.07-35.25-45A143.29,143.29,0,0,1,201.12,268,245.07,245.07,0,0,1,198.47,234Z" transform="translate(-198.39 -131.49)"/>
</svg>
