<svg xmlns="http://www.w3.org/2000/svg" viewBox="0 0 13.68 16.78"><defs><style>.cls-1{fill:#fff;}</style></defs><title>mac</title><g id="圖層_2" data-name="圖層 2"><g id="圖層_1-2" data-name="圖層 1"><g id="Group_519" data-name="Group 519"><g id="Group_509" data-name="Group 509"><path id="Path_123" data-name="Path 123" class="cls-1" d="M10.07,0h.11a3.55,3.55,0,0,1-.9,2.71A2.8,2.8,0,0,1,6.82,3.87a3.48,3.48,0,0,1,.92-2.63A4,4,0,0,1,10.07,0Z"/><path id="Path_124" data-name="Path 124" class="cls-1" d="M13.68,12.31v0A9.85,9.85,0,0,1,12.28,15c-.53.73-1.18,1.72-2.35,1.72-1,0-1.67-.65-2.71-.67s-1.69.55-2.69.69H4.19a3.11,3.11,0,0,1-1.76-1.21A10.69,10.69,0,0,1,0,9.47V8.72a4.91,4.91,0,0,1,2.15-4,3.6,3.6,0,0,1,2.43-.56,5.4,5.4,0,0,1,1.19.34A3.57,3.57,0,0,0,7,4.82a2.94,2.94,0,0,0,.84-.26,5.21,5.21,0,0,1,2.69-.48,3.74,3.74,0,0,1,2.74,1.64,3.52,3.52,0,0,0-1.78,3.49A3.57,3.57,0,0,0,13.68,12.31Z"/></g></g></g></g></svg>