<svg xmlns="http://www.w3.org/2000/svg" width="30.582" height="22.936" viewBox="0 0 30.582 22.936"><defs><style>.a{fill:#fff;}</style></defs><g transform="translate(0 0)"><path class="a" d="M28.033,64H2.549A2.551,2.551,0,0,0,0,66.549V84.388a2.551,2.551,0,0,0,2.549,2.548H28.033a2.551,2.551,0,0,0,2.548-2.549V66.549A2.551,2.551,0,0,0,28.033,64ZM2.549,65.274H28.033a1.212,1.212,0,0,1,.265.054c-2.206,2.019-9.522,8.712-12.083,11.019a1.278,1.278,0,0,1-1.85,0c-2.56-2.306-9.876-9-12.082-11.018A1.218,1.218,0,0,1,2.549,65.274ZM1.274,84.388V66.549a1.231,1.231,0,0,1,.071-.352c1.689,1.546,6.793,6.216,10.1,9.226-3.3,2.834-8.405,7.675-10.107,9.3A1.228,1.228,0,0,1,1.274,84.388Zm26.759,1.274H2.549a1.219,1.219,0,0,1-.287-.058c1.759-1.677,6.9-6.546,10.139-9.318.423.383.809.733,1.113,1.007a2.545,2.545,0,0,0,3.556,0c.3-.274.691-.624,1.113-1.008,3.241,2.773,8.379,7.641,10.139,9.318A1.218,1.218,0,0,1,28.033,85.662Zm1.274-1.274a1.23,1.23,0,0,1-.067.332c-1.7-1.624-6.808-6.464-10.107-9.3,3.31-3.01,8.414-7.68,10.1-9.226a1.231,1.231,0,0,1,.071.352Z" transform="translate(0 -64)"/></g></svg>