<svg xmlns="http://www.w3.org/2000/svg" width="48.278" height="29.071" viewBox="0 0 48.278 29.071">
    <defs>
        <style>.a{fill:#e9b040;}.b{fill:#cc2131;}.c{fill:#fff;}</style>
    </defs>
    <path class="a" d="M860.966,25.2a14.262,14.262,0,0,0,9.681,3.767,14.535,14.535,0,0,0,0-29.069,14.262,14.262,0,0,0-9.681,3.767,14.545,14.545,0,0,0,0,21.534Z" transform="translate(-836.815 0.1)"/>
    <path class="a" d="M2047.5,980.148a.446.446,0,0,1,.448-.448.452.452,0,0,1,.473.448.458.458,0,0,1-.473.473A.453.453,0,0,1,2047.5,980.148Zm.448.376a.383.383,0,0,0,.373-.374.362.362,0,0,0-.373-.349.356.356,0,0,0-.349.349A.381.381,0,0,0,2047.948,980.524Zm-.05-.152h-.1v-.423h.174a.15.15,0,0,1,.1.025c.05.025.05.05.05.1s-.025.1-.075.1l.1.2h-.125l-.05-.174h-.075v-.075h.1c.025,0,.025-.025.025-.05s0-.025-.025-.05h-.1Z" transform="translate(-2001.142 -957.516)"/>
    <path class="b" d="M28.818,13c-.05-.523-.149-1.023-.249-1.546H19.736a15.141,15.141,0,0,1,.4-1.521h8.008q-.262-.788-.6-1.546H20.757c.249-.528.525-1.044.824-1.546H26.7a12.9,12.9,0,0,0-1.1-1.521H22.68A14.181,14.181,0,0,1,24.151,3.77a14.493,14.493,0,1,0-9.706,25.3A14.325,14.325,0,0,0,24.151,25.3,13.708,13.708,0,0,0,25.6,23.78H22.68a17.278,17.278,0,0,1-1.1-1.546H26.7a11.781,11.781,0,0,0,.849-1.546H20.757c-.224-.5-.448-1-.625-1.521h8.01a15.7,15.7,0,0,0,.423-1.546,15.4,15.4,0,0,0,.249-1.546c.05-.5.075-1.014.075-1.521A15.1,15.1,0,0,0,28.818,13Z" transform="translate(0 0.002)"/>
    <path class="c" d="M2047.5,770.773a.453.453,0,0,1,.448-.473.458.458,0,0,1,.473.473.473.473,0,0,1-.473.473A.467.467,0,0,1,2047.5,770.773Zm.448.351a.349.349,0,1,0,0-.7.349.349,0,0,0,0,.7Zm-.05-.152h-.1v-.4h.274c.05.025.05.075.05.125a.134.134,0,0,1-.075.1l.1.174h-.125l-.05-.149h-.075v-.075h.05c.025,0,.05,0,.05-.025.025,0,.025-.025.025-.05a.024.024,0,0,0-.025-.025c0-.025-.025,0-.05,0h-.05Z" transform="translate(-2001.142 -752.857)"/>
    <path class="c" d="M94.011,478.576l-.274,1.6a3,3,0,0,0-1.4-.4c-1.173,0-2,1.148-2,2.769,0,1.123.548,1.8,1.472,1.8a3.064,3.064,0,0,0,1.322-.374l-.274,1.671a5.215,5.215,0,0,1-1.372.224c-1.7,0-2.744-1.223-2.744-3.192,0-2.62,1.447-4.467,3.518-4.467a3.065,3.065,0,0,1,.722.075l.625.149c.2.077.249.1.4.152Zm-5.04,1.1h-.149c-.523,0-.824.249-1.3.974l.149-.924H86.25l-.974,5.989h1.571c.573-3.668.722-4.29,1.472-4.29h.1a6.252,6.252,0,0,1,.6-1.721l-.045-.027Zm-9.032,5.964a3.246,3.246,0,0,1-1.123.2,1.153,1.153,0,0,1-1.248-1.322,4.168,4.168,0,0,1,.05-.525l.1-.6.075-.473.675-4.091h1.546l-.174.9h.8l-.2,1.472h-.8l-.423,2.5a.935.935,0,0,0-.025.249c0,.3.149.423.523.423a1.035,1.035,0,0,0,.423-.05l-.2,1.322Zm-6.013-4.019A1.744,1.744,0,0,0,75.1,483.29c.65.3.749.4.749.65,0,.374-.274.548-.9.548a4.674,4.674,0,0,1-1.4-.224l-.224,1.372.075.025.274.05a1.627,1.627,0,0,0,.423.05,5.791,5.791,0,0,0,.849.05c1.646,0,2.42-.625,2.42-2a1.657,1.657,0,0,0-1.1-1.671c-.675-.3-.749-.374-.749-.65,0-.324.274-.473.774-.473a9.756,9.756,0,0,1,1.123.075l.224-1.372a9.063,9.063,0,0,0-1.372-.124c-1.748,0-2.371.926-2.346,2.022Zm32.035,4.093h-1.472l.075-.575a1.871,1.871,0,0,1-1.447.65c-1.148,0-1.9-.974-1.9-2.47,0-2,1.173-3.693,2.545-3.693a1.786,1.786,0,0,1,1.5.824l.349-2.1h1.546l-1.2,7.361Zm-2.3-1.4c.725,0,1.223-.849,1.223-2.022,0-.774-.274-1.173-.824-1.173-.7,0-1.223.824-1.223,2,0,.8.276,1.2.824,1.2Zm-18.937,1.27a5.136,5.136,0,0,1-1.621.249,2.377,2.377,0,0,1-2.644-2.694c0-2.047,1.148-3.568,2.719-3.568a2.006,2.006,0,0,1,2.121,2.171,6.041,6.041,0,0,1-.2,1.5h-3.1a.486.486,0,0,0-.025.174c0,.7.473,1.048,1.372,1.048a3.435,3.435,0,0,0,1.621-.374l-.249,1.5Zm-.872-3.566v-.3a.691.691,0,0,0-.749-.774c-.5,0-.849.374-1,1.073Zm-15.894,3.693H66.416l.9-5.665-2.022,5.665H64.22L64.1,480.1l-.949,5.615H61.7l1.223-7.361h2.246l.075,4.567,1.5-4.567h2.445l-1.223,7.361Zm3.867-2.669c-.149,0-.224-.025-.349-.025-.874,0-1.322.324-1.322.924a.525.525,0,0,0,.548.6c.65,0,1.1-.6,1.123-1.5Zm1.148,2.669h-1.3l.025-.625a1.946,1.946,0,0,1-1.646.725,1.449,1.449,0,0,1-1.422-1.621c0-1.472,1-2.321,2.744-2.321.174,0,.4.025.65.05a1.258,1.258,0,0,0,.05-.374c0-.4-.274-.548-1-.548a5.162,5.162,0,0,0-1.3.149l-.224.075-.149.025.224-1.347a6.294,6.294,0,0,1,1.872-.3c1.347,0,2.072.6,2.072,1.746a7.555,7.555,0,0,1-.125,1.2l-.349,2.122-.05.374-.025.3-.025.224-.029.149Zm23.554-2.669c-.174,0-.249-.025-.349-.025-.9,0-1.347.324-1.347.924a.544.544,0,0,0,.575.6c.623,0,1.1-.6,1.121-1.5Zm1.148,2.669h-1.3l.025-.625a1.946,1.946,0,0,1-1.646.725,1.449,1.449,0,0,1-1.422-1.621c0-1.472,1-2.321,2.744-2.321a6.25,6.25,0,0,1,.625.05,1.584,1.584,0,0,0,.075-.374c0-.4-.274-.548-1-.548a5.355,5.355,0,0,0-1.322.149l-.2.075-.149.025.224-1.347a6.293,6.293,0,0,1,1.872-.3c1.347,0,2.047.6,2.047,1.746a5.364,5.364,0,0,1-.125,1.2l-.324,2.122-.05.374-.05.3-.025.224,0,.149Zm4.191-6.038h-.149c-.523,0-.824.249-1.3.974l.149-.924H99.151l-.949,5.989h1.546c.575-3.668.725-4.29,1.472-4.29h.1a6.253,6.253,0,0,1,.6-1.721l-.048-.027Z" transform="translate(-60.303 -467.371)"/>
</svg>
