<svg xmlns="http://www.w3.org/2000/svg" width="29.219" height="29.219" viewBox="0 0 29.219 29.219"><defs><style>.a{fill:#fff;}</style></defs><path class="a" d="M29.219,14.61A14.61,14.61,0,1,0,4.742,25.372l-.014.012.474.4c.031.026.064.047.1.073.252.209.513.407.778.6.086.062.172.124.26.185q.426.293.872.557l.2.113c.326.185.658.36,1,.521l.075.034a14.478,14.478,0,0,0,3.533,1.118l.1.018c.385.066.774.12,1.167.155l.144.011c.392.032.788.053,1.19.053s.791-.021,1.18-.052l.148-.011Q16.524,29.1,17.1,29l.1-.018a14.478,14.478,0,0,0,3.483-1.092l.122-.055q.492-.231.962-.5L22,27.207c.286-.168.567-.344.84-.531.1-.067.194-.138.292-.208.233-.168.462-.341.685-.522.049-.04.1-.074.151-.115l.486-.406-.014-.012A14.572,14.572,0,0,0,29.219,14.61Zm-28.157,0A13.547,13.547,0,1,1,23.594,24.737a3.982,3.982,0,0,0-.474-.285l-4.5-2.249a1.178,1.178,0,0,1-.655-1.059V19.573c.1-.129.214-.274.328-.434a10.826,10.826,0,0,0,1.39-2.722,1.928,1.928,0,0,0,1.108-1.747V12.787a1.933,1.933,0,0,0-.471-1.259V9.049a4.285,4.285,0,0,0-1-3.115C18.341,4.816,16.757,4.25,14.61,4.25S10.878,4.816,9.9,5.933a4.285,4.285,0,0,0-1,3.115v2.479a1.936,1.936,0,0,0-.471,1.259V14.67a1.933,1.933,0,0,0,.712,1.5,9.983,9.983,0,0,0,1.643,3.394V21.1a1.185,1.185,0,0,1-.617,1.04l-4.2,2.291a3.839,3.839,0,0,0-.4.253A13.515,13.515,0,0,1,1.063,14.61ZM22.557,25.571c-.186.135-.375.266-.567.39-.088.057-.176.115-.266.171-.251.155-.506.3-.766.441l-.173.089a13.537,13.537,0,0,1-1.853.784l-.067.023q-.5.166-1.012.293h0c-.344.085-.693.156-1.043.214l-.029.005c-.33.054-.662.092-1,.122l-.177.013c-.33.025-.661.041-.995.041s-.673-.016-1.007-.041L13.43,28.1c-.337-.03-.672-.07-1-.124l-.045-.008a13.5,13.5,0,0,1-2.067-.516l-.063-.021q-.5-.171-.989-.379l-.007,0c-.307-.132-.608-.279-.906-.434l-.116-.06c-.271-.145-.537-.3-.8-.465L7.2,25.944c-.241-.158-.479-.322-.711-.5l-.071-.055.051-.029,4.2-2.291A2.247,2.247,0,0,0,11.845,21.1V19.187l-.122-.148a8.87,8.87,0,0,1-1.594-3.3l-.048-.21L9.9,15.409a.88.88,0,0,1-.409-.74V12.786a.868.868,0,0,1,.3-.65l.175-.158V9.019l0-.07A3.2,3.2,0,0,1,10.7,6.633a5.006,5.006,0,0,1,3.912-1.32,5.019,5.019,0,0,1,3.9,1.31,3.253,3.253,0,0,1,.751,2.327l0,3.029.175.158a.869.869,0,0,1,.3.65V14.67a.887.887,0,0,1-.627.837l-.264.081-.085.263a9.829,9.829,0,0,1-1.326,2.673c-.139.2-.275.371-.391.5l-.132.15v1.965a2.234,2.234,0,0,0,1.242,2.009l4.5,2.249.085.044C22.673,25.489,22.614,25.529,22.557,25.571Z"/></svg>