<svg xmlns="http://www.w3.org/2000/svg" width="13.97" height="14.025" viewBox="0 0 13.97 14.025">
    <defs>
        <style>.a{fill:#fff;}</style>
    </defs>
    <path class="a" d="M562.411,285.424h3.972v-1.1h.822v1.1h3.972a.411.411,0,0,0,.411-.411v-1.1a.411.411,0,0,0-.411-.411h-1.946a2.616,2.616,0,1,0-4.874,0h-1.946a.411.411,0,0,0-.411.411v1.1A.411.411,0,0,0,562.411,285.424Zm5.479-3.287a.685.685,0,1,1,0,1.37H567.2v-.685A.686.686,0,0,1,567.889,282.137Zm-2.876.685a.685.685,0,1,1,1.37,0v.685H565.7A.686.686,0,0,1,565.013,282.822Z" transform="translate(-559.809 -281.315)"/>
    <path class="a" d="M557.821,563.4a1.019,1.019,0,0,0-1.431-.091l-1.638,1.427c0,.021,0,.042,0,.063a1.851,1.851,0,0,1-1.849,1.849h-2.2a.411.411,0,1,1,0-.822h2.2a1.026,1.026,0,1,0,0-2.053h-2.145a3.376,3.376,0,0,0-4.711-.351l-.192.162,2.02,4.714h5.217a2.052,2.052,0,0,0,1.373-.526l3.273-2.939a1.019,1.019,0,0,0,.081-1.435Z" transform="translate(-544.108 -554.925)"/>
    <path class="a" d="M752,464.415h1.4a1.85,1.85,0,0,1,1.6.915l.838-.731v-3.283H752Z" transform="translate(-744.604 -456.384)"/>
    <path class="a" d="M583.374,463.269c.106,0,.214,0,.32.012a4.174,4.174,0,0,1,2.141.78v-2.746H582V463.5A4.182,4.182,0,0,1,583.374,463.269Z" transform="translate(-579.261 -456.384)"/>
    <path class="a" d="M482.248,612.669a.411.411,0,0,0-.216.54l1.644,3.835a.411.411,0,0,0,.54.216l.779-.334-1.967-4.59Z" transform="translate(-481.999 -603.267)"/>
</svg>
