<svg xmlns="http://www.w3.org/2000/svg" width="13.383" height="10.037" viewBox="0 0 13.383 10.037">
    <defs>
        <style>.a{fill:#fff;}</style>
    </defs>
    <path class="a" d="M7.012,64.814c1.837,1.556,5.06,4.292,6.007,5.146a.56.56,0,0,0,.809,0c.948-.854,4.171-3.591,6.008-5.147a.279.279,0,0,0,.039-.385A1.107,1.107,0,0,0,19,64H7.848a1.107,1.107,0,0,0-.875.43A.279.279,0,0,0,7.012,64.814Z" transform="translate(-6.733 -64)"/>
    <path class="a" d="M13.221,126.438a.278.278,0,0,0-.3.04c-2.037,1.727-4.637,3.94-5.455,4.677a1.129,1.129,0,0,1-1.556,0c-.872-.786-3.791-3.267-5.454-4.677a.279.279,0,0,0-.459.213V133.7a1.116,1.116,0,0,0,1.115,1.115H12.268a1.116,1.116,0,0,0,1.115-1.115v-7.012A.279.279,0,0,0,13.221,126.438Z" transform="translate(0 -124.78)"/>
</svg>
