<svg xmlns="http://www.w3.org/2000/svg"
    xmlns:xlink="http://www.w3.org/1999/xlink" width="66" height="66" viewBox="0 0 66 66">
    <defs>
        <style>.a{opacity:0.5;}.b{fill:none;stroke:#fff;stroke-miterlimit:10;stroke-width:3px;}.c{fill:url(#a);}.d{fill:url(#c);}.e{fill:url(#d);}.f{fill:url(#h);}.g{fill:url(#i);}.h{fill:url(#j);}.i{fill:url(#k);}.j{fill:#fff;}</style>
        <linearGradient id="a" x1="0.5" y1="-1.203" x2="0.5" y2="1.785" gradientUnits="objectBoundingBox">
            <stop offset="0.013" stop-color="#a400d4"/>
            <stop offset="0.712" stop-color="#009ce9"/>
        </linearGradient>
        <linearGradient id="c" x1="0.5" y1="-1.26" x2="0.5" y2="1.828" xlink:href="#a"/>
        <linearGradient id="d" x1="0.5" y1="-2.946" x2="0.5" y2="0.859" xlink:href="#a"/>
        <linearGradient id="h" x1="0.5" y1="-0.812" x2="0.5" y2="4.727" xlink:href="#a"/>
        <linearGradient id="i" x1="0.5" y1="-0.161" x2="0.5" y2="3.916" xlink:href="#a"/>
        <linearGradient id="j" x1="0.5" y1="0.097" x2="0.5" y2="3.853" xlink:href="#a"/>
        <linearGradient id="k" x1="0.5" y1="0.307" x2="0.5" y2="4.229" xlink:href="#a"/>
    </defs>
    <g transform="translate(80.945 716.841)">
        <circle class="a" cx="31.5" cy="31.5" r="31.5" transform="translate(-79.445 -715.341)"/>
        <circle class="b" cx="31.5" cy="31.5" r="31.5" transform="translate(-79.445 -715.341)"/>
        <g transform="translate(-66.576 -702.871)">
            <g transform="translate(0.597 0.373)">
                <path class="c" d="M-17.382-588.641a5.773,5.773,0,0,0,4.154,1.463,7.854,7.854,0,0,0,3.954-.919.125.125,0,0,0,.062-.108v-5.376a.124.124,0,0,0-.124-.125h-4.549a.124.124,0,0,0-.124.125v1.923a.124.124,0,0,0,.124.125h2.016v1.884a3.238,3.238,0,0,1-1.248.2,2.876,2.876,0,0,1-2.195-.863,3.482,3.482,0,0,1-.813-2.465,3.469,3.469,0,0,1,.908-2.512,3.144,3.144,0,0,1,2.353-.935,5.865,5.865,0,0,1,2.965.7.123.123,0,0,0,.062.017.126.126,0,0,0,.062-.016.125.125,0,0,0,.062-.108v-2.259a.124.124,0,0,0-.082-.117,8.948,8.948,0,0,0-3.04-.477,6.068,6.068,0,0,0-4.412,1.624,5.635,5.635,0,0,0-1.663,4.2A5.336,5.336,0,0,0-17.382-588.641Z" transform="translate(20.515 614.736)"/>
                <path class="c" d="M27.429-596.88a5.9,5.9,0,0,0-1.5,4.186,5.51,5.51,0,0,0,1.482,3.983,5.119,5.119,0,0,0,3.833,1.533,5.17,5.17,0,0,0,3.912-1.582,5.8,5.8,0,0,0,1.5-4.15,5.669,5.669,0,0,0-1.447-4.037,4.994,4.994,0,0,0-3.793-1.538A5.227,5.227,0,0,0,27.429-596.88Zm5.736,6.52a2.276,2.276,0,0,1-1.879.852,2.251,2.251,0,0,1-1.857-.878,3.787,3.787,0,0,1-.718-2.435,3.862,3.862,0,0,1,.719-2.44,2.287,2.287,0,0,1,1.915-.9,2.174,2.174,0,0,1,1.84.876,4.073,4.073,0,0,1,.683,2.512A3.748,3.748,0,0,1,33.165-590.361Z" transform="translate(-13.157 614.736)"/>
                <path class="d" d="M80.272-597.767H76.484a.124.124,0,0,0-.124.124v10.693a.124.124,0,0,0,.124.125h3.788a5.878,5.878,0,0,0,4.229-1.526,5.413,5.413,0,0,0,1.593-4.079C86.094-595.971,84.135-597.767,80.272-597.767Zm-1.255,2.21h1.053a3.265,3.265,0,0,1,2.392.84,3.128,3.128,0,0,1,.847,2.316,3.461,3.461,0,0,1-.857,2.472,3.117,3.117,0,0,1-2.366.9H79.018Z" transform="translate(-51.034 614.196)"/>
                <path class="e" d="M-11.844-548.052H-14.89a.125.125,0,0,0-.124.125v8.631a.125.125,0,0,0,.124.125h1.944a.125.125,0,0,0,.124-.125v-2.848h.8a3.845,3.845,0,0,0,2.582-.834,2.769,2.769,0,0,0,.979-2.2C-8.457-547.085-9.6-548.052-11.844-548.052Zm-.977,1.742h.64c.961,0,1.428.394,1.428,1.206,0,.832-.467,1.236-1.428,1.236h-.64Z" transform="translate(17.59 576.859)"/>
                <path class="e" d="M23.633-541H20.561v-6.929a.125.125,0,0,0-.124-.125H18.492a.125.125,0,0,0-.124.125v8.631a.125.125,0,0,0,.124.125h5.14a.125.125,0,0,0,.124-.125v-1.577A.124.124,0,0,0,23.633-541Z" transform="translate(-7.481 576.859)"/>
                <path class="e" d="M48.614-547.969a.125.125,0,0,0-.117-.083H46.192a.124.124,0,0,0-.117.082l-3.142,8.631a.125.125,0,0,0,.015.114.125.125,0,0,0,.1.053h2.107a.125.125,0,0,0,.119-.087l.58-1.833h2.887l.586,1.833a.125.125,0,0,0,.119.087h2.119a.124.124,0,0,0,.1-.053.124.124,0,0,0,.015-.114Zm-1.326,2.2c.016.07.035.136.055.2l.875,2.739H46.351l.887-2.763C47.256-545.654,47.273-545.713,47.289-545.771Z" transform="translate(-25.924 576.859)"/>
                <path class="e" d="M88.083-548.052H86.024a.125.125,0,0,0-.114.075L84.5-544.734a2.156,2.156,0,0,0-.094.264c-.055-.2-.075-.258-.087-.288l-1.391-3.22a.124.124,0,0,0-.114-.075H80.59a.125.125,0,0,0-.106.059.125.125,0,0,0-.006.121L83.2-542.3v3a.125.125,0,0,0,.124.125h1.944a.125.125,0,0,0,.124-.125v-3.04l2.8-5.535a.125.125,0,0,0,0-.122A.124.124,0,0,0,88.083-548.052Z" transform="translate(-54.117 576.859)"/>
                <path class="f" d="M20.628-630.808c0-.916-1.176-1.754-3.4-2.422a.117.117,0,0,0-.036-.005.119.119,0,0,0-.036.005A38.927,38.927,0,0,1,6.685-631.99,38.931,38.931,0,0,1-3.786-633.23a.117.117,0,0,0-.036-.005.119.119,0,0,0-.036.005c-2.224.668-3.4,1.506-3.4,2.422,0,2.06,6.124,3.672,13.942,3.672S20.628-628.748,20.628-630.808Z" transform="translate(11.765 640.834)"/>
                <path class="g" d="M11.745-639.481a.129.129,0,0,0,.041-.007c2.477-.857,3.786-1.994,3.786-3.286,0-2.777-7.084-4.97-16.132-4.994H-.729c-9.048.025-16.132,2.217-16.132,4.994,0,1.292,1.309,2.429,3.786,3.286a.129.129,0,0,0,.041.007.125.125,0,0,0,.115-.077.124.124,0,0,0-.061-.16c-1.355-.66-2.071-1.406-2.071-2.158,0-2.32,6.463-4.217,14.407-4.228,7.944.011,14.407,1.907,14.407,4.228,0,.752-.716,1.5-2.071,2.158a.124.124,0,0,0-.06.16A.124.124,0,0,0,11.745-639.481Z" transform="translate(18.977 651.749)"/>
                <path class="h" d="M-5.045-656.614l-.023,0H-5.2l-.022,0c-9.886.047-16.771,2.281-17.544,5.693a2.832,2.832,0,0,0,2.016,3.292.1.1,0,0,0,.039.008.124.124,0,0,0,.106-.07.137.137,0,0,0-.043-.167,2.386,2.386,0,0,1-.94-1.03,1.616,1.616,0,0,1,.164-1.433c1.249-2.168,7.247-4.381,16.292-4.417,9.046.035,15.043,2.249,16.293,4.417a1.616,1.616,0,0,1,.164,1.433,2.386,2.386,0,0,1-.94,1.03l-.019.014a.125.125,0,0,0-.033.16.124.124,0,0,0,.109.063.124.124,0,0,0,.046-.009,2.832,2.832,0,0,0,2.016-3.292C11.726-654.333,4.841-656.567-5.045-656.614Z" transform="translate(23.469 658.393)"/>
                <path class="i" d="M8.718-660.653c-3.392-2.083-8.274-3.068-15.365-3.1h0l-.028,0h-.735l-.023,0c-7.078.034-11.954,1.019-15.347,3.1-2.435,1.654-2.936,3.974-2.371,5.431a.125.125,0,0,0,.116.079.137.137,0,0,0,.034,0,.125.125,0,0,0,.088-.142c-.369-2,.974-3.593,4.229-5.014,3.569-1.559,7.933-1.889,13.388-1.905h.535c5.455.016,9.819.347,13.388,1.905,3.255,1.421,4.6,3.015,4.229,5.014a.125.125,0,0,0,.088.142.138.138,0,0,0,.034,0,.125.125,0,0,0,.116-.079C11.659-656.675,11.158-659,8.718-660.653Z" transform="translate(25.362 663.755)"/>
            </g>
            <g transform="translate(0 0)">
                <g transform="translate(1.609 16.25)">
                    <path class="j" d="M-11.846-589.83a7.7,7.7,0,0,1-3.892.9,5.63,5.63,0,0,1-4.068-1.428,5.2,5.2,0,0,1-1.488-3.934,5.491,5.491,0,0,1,1.626-4.109,5.923,5.923,0,0,1,4.325-1.588,8.784,8.784,0,0,1,3,.47v2.259a5.957,5.957,0,0,0-3.027-.716,3.25,3.25,0,0,0-2.442.973,3.574,3.574,0,0,0-.943,2.6,3.586,3.586,0,0,0,.846,2.55,2.983,2.983,0,0,0,2.286.9,3.185,3.185,0,0,0,1.372-.246v-2.088h-2.14v-1.924h4.549Z" transform="translate(21.294 599.986)"/>
                    <path class="j" d="M28.73-588.928a4.978,4.978,0,0,1-3.743-1.5,5.366,5.366,0,0,1-1.447-3.9,5.751,5.751,0,0,1,1.469-4.1,5.086,5.086,0,0,1,3.892-1.566,4.853,4.853,0,0,1,3.7,1.5,5.525,5.525,0,0,1,1.413,3.952,5.661,5.661,0,0,1-1.465,4.064A5.03,5.03,0,0,1,28.73-588.928Zm.1-8.985a2.425,2.425,0,0,0-2.013.951,3.964,3.964,0,0,0-.746,2.517,3.89,3.89,0,0,0,.746,2.513,2.389,2.389,0,0,0,1.954.925,2.412,2.412,0,0,0,1.976-.9,3.846,3.846,0,0,0,.731-2.494,4.171,4.171,0,0,0-.709-2.588A2.31,2.31,0,0,0,28.834-597.913Z" transform="translate(-12.378 599.986)"/>
                    <path class="j" d="M73.974-588.574v-10.693h3.788q5.7,0,5.7,5.212a5.27,5.27,0,0,1-1.555,3.989,5.733,5.733,0,0,1-4.142,1.491Zm2.409-8.732v6.778h1.193a3.224,3.224,0,0,0,2.457-.94,3.565,3.565,0,0,0,.891-2.558,3.234,3.234,0,0,0-.884-2.4,3.37,3.37,0,0,0-2.48-.876Z" transform="translate(-50.255 599.446)"/>
                </g>
                <g transform="translate(2.579 28.807)">
                    <path class="j" d="M-15.456-543.895v2.973H-17.4v-8.631h3.046q3.262,0,3.262,2.75a2.639,2.639,0,0,1-.936,2.1,3.709,3.709,0,0,1-2.5.8Zm0-4.165v2.69h.764q1.553,0,1.553-1.36,0-1.33-1.553-1.33Z" transform="translate(17.4 549.552)"/>
                    <path class="j" d="M21.122-540.921h-5.14v-8.631h1.944v7.054h3.2Z" transform="translate(-7.671 549.552)"/>
                    <path class="j" d="M49.056-540.921H46.938l-.614-1.92h-3.07l-.608,1.92H40.54l3.142-8.631h2.305Zm-3.178-3.412-.927-2.9a3.782,3.782,0,0,1-.144-.776h-.048a3.288,3.288,0,0,1-.15.752l-.939,2.925Z" transform="translate(-26.115 549.552)"/>
                    <path class="j" d="M85.572-549.552l-2.811,5.561v3.069H80.817v-3.033l-2.738-5.6H80.3l1.391,3.22q.036.091.2.7h.024a3.131,3.131,0,0,1,.186-.68l1.414-3.244Z" transform="translate(-54.307 549.552)"/>
                </g>
                <path class="j" d="M14.681-634.735A38.855,38.855,0,0,1,4.174-633.49a38.854,38.854,0,0,1-10.506-1.245c-2.063.62-3.312,1.424-3.312,2.3,0,1.959,6.187,3.548,13.818,3.548s13.818-1.588,13.818-3.548C17.992-633.311,16.744-634.115,14.681-634.735Z" transform="translate(14.154 642.334)"/>
                <path class="j" d="M-3.086-649.268h-.137c-9,.022-16.024,2.193-16.024,4.87,0,1.21,1.241,2.316,3.7,3.168-1.358-.661-2.141-1.438-2.141-2.27,0-2.4,6.5-4.341,14.531-4.353,8.032.011,14.531,1.955,14.531,4.353,0,.832-.784,1.609-2.141,2.27,2.461-.852,3.7-1.958,3.7-3.168C12.938-647.075,5.911-649.246-3.086-649.268Z" transform="translate(21.366 653.249)"/>
                <path class="j" d="M-7.573-658.115v0H-7.71v0c-9.645.043-16.686,2.248-17.445,5.6a2.714,2.714,0,0,0,1.94,3.149,2.549,2.549,0,0,1-1-1.089,1.729,1.729,0,0,1,.169-1.549c1.368-2.374,7.8-4.445,16.4-4.479,8.6.034,15.032,2.1,16.4,4.479a1.729,1.729,0,0,1,.169,1.549,2.549,2.549,0,0,1-1,1.089,2.714,2.714,0,0,0,1.94-3.149C9.113-655.867,2.072-658.072-7.573-658.115Z" transform="translate(25.853 659.894)"/>
                <path class="j" d="M6.134-662.171c-3.358-2.062-8.194-3.05-15.3-3.082v0h-.761v0c-7.107.032-11.942,1.019-15.3,3.082-2.325,1.579-2.9,3.814-2.325,5.282-.364-1.969.881-3.657,4.3-5.151,3.487-1.523,7.661-1.9,13.438-1.916h.535c5.777.018,9.951.393,13.438,1.916,3.42,1.494,4.665,3.181,4.3,5.151C9.029-658.357,8.46-660.592,6.134-662.171Z" transform="translate(27.758 665.255)"/>
            </g>
        </g>
    </g>
</svg>
