<svg xmlns="http://www.w3.org/2000/svg" viewBox="0 0 40 20"><defs><style>.cls-1{fill:#f66;}</style></defs><title>menu_logo</title><g id="圖層_2" data-name="圖層 2"><g id="圖層_1-2" data-name="圖層 1"><g id="Group_2" data-name="Group 2"><path id="Path_1" data-name="Path 1" class="cls-1" d="M3.22,1.08l6.9,15.53.15.34a1,1,0,0,0,.38.42,1.53,1.53,0,0,0,1,.32,1.79,1.79,0,0,0,1-.32,1.08,1.08,0,0,0,.3-.34l.05-.12a.29.29,0,0,1,0-.09l.1-.21L20,1.08h3.24L15.91,17.57A3.2,3.2,0,0,1,14.78,19a5,5,0,0,1-3.16,1,5.05,5.05,0,0,1-3.14-1,3.38,3.38,0,0,1-1-1.13h0L0,1.08Zm8,15.6L10,14,4.26,1.08H7.45l4.14,9.33,4.17-9.33h3.16L12.77,15,12,16.67a.59.59,0,0,1-.13.19.54.54,0,0,1-.6,0A1.13,1.13,0,0,1,11.17,16.68Z"/><path id="Path_2" data-name="Path 2" class="cls-1" d="M36.62,20H40L32.16,2.24h0a3.63,3.63,0,0,0-1-1.2,5.81,5.81,0,0,0-6.64,0,3.4,3.4,0,0,0-1.18,1.52L15.56,20H19l1.82-4.11h1.12L20.1,20h3.33l4.38-9.86,1.34,3.06h-1.1L27,15.9h3.37L32.16,20h3.35L33.7,15.89h1.1Zm-4.1-6.81-3-6.87L28.26,3.5a.62.62,0,0,0-.14-.18.53.53,0,0,0-.62,0,.39.39,0,0,0-.13.2l-.79,1.76L23.1,13.19H22l4.24-9.61.1-.22a.17.17,0,0,0,0-.1l.05-.12a1.19,1.19,0,0,1,.31-.36,1.89,1.89,0,0,1,1.08-.34,1.57,1.57,0,0,1,1,.34,1,1,0,0,1,.39.44l.16.36,4.25,9.61Z"/></g></g></g></svg>