<svg id="圖層_1" data-name="圖層 1"
    xmlns="http://www.w3.org/2000/svg" viewBox="0 0 181.99 181.99">
    <defs>
        <style>.cls-1{fill:#fff}</style>
    </defs>
    <title>錢</title>
    <path class="cls-1" d="M513,298.23a91,91,0,1,1-90.92-91A91,91,0,0,1,513,298.23Zm-91-79a79,79,0,1,0,79,79.29A79.13,79.13,0,0,0,422,219.28Z" transform="translate(-331 -207.28)"/>
    <path class="cls-1" d="M428,344.6V360H416.19V346.32L393.68,340c1.47-4.74,2.62-8.47,3.77-12.17L417,334.16c0-11.06.08-21-.1-31,0-1.09-1.29-2.47-2.34-3.18-2.61-1.77-5.52-3.08-8.14-4.84-8.3-5.55-12.55-13.23-11.19-23.35,1.39-10.39,7.41-17.15,17.2-20.66,1.38-.5,2.78-1,4.48-1.57V234.84h11v13.29L447,253.34l-3.71,11.73L428,260.43c0,9.85-.19,18.66.18,27.45.06,1.46,2.32,3.26,4,4.14,7.35,4,14,8.57,16.7,17,4.77,14.8-2.62,29.26-17.39,34.34C430.38,343.69,429.31,344.12,428,344.6Zm.28-36.5v22.1C436.69,325.06,436.63,313.67,428.31,308.1ZM416.53,283V263.14C408.37,267.27,408.36,279.18,416.53,283Z" transform="translate(-331 -207.28)"/>
</svg>
