<svg xmlns="http://www.w3.org/2000/svg" viewBox="0 0 11.34 12.54">
    <defs>
        <style>.cls-1-4,.cls-2-4{fill:none;}.cls-2-4{stroke:#797979;stroke-linejoin:round;stroke-width:1.2px;}</style>
    </defs>
    <g id="圖層_2" data-name="圖層 2">
        <g id="圖層_1-2" data-name="圖層 1">
            <rect id="Rectangle_1623" data-name="Rectangle 1623" class="cls-1-4" y="0.63" width="11.34" height="11.29"/>
            <g id="Group_543" data-name="Group 543">
                <path id="Path_132" data-name="Path 132" class="cls-2-4" d="M3.34,7.53l1.5,4.4H3.19L1.68,7.53"/>
                <path id="Path_133" data-name="Path 133" class="cls-2-4" d="M3.69,2.88A16.79,16.79,0,0,0,10.63.6h0V9.82h0A16.79,16.79,0,0,0,3.69,7.55l-.7,0H1.06a.31.31,0,0,1-.13,0h0A.41.41,0,0,1,.7,7.1V3.34h0a.4.4,0,0,1,.39-.42H3Z"/>
                <line id="Line_5" data-name="Line 5" class="cls-2-4" x1="3.34" y1="2.9" x2="3.34" y2="7.53"/>
            </g>
        </g>
    </g>
</svg>
