<svg xmlns="http://www.w3.org/2000/svg" viewBox="0 0 26.86 33.69"><defs><style>.cls-1{fill:none;stroke:#fff;stroke-miterlimit:10;stroke-width:2px;}.cls-2{fill:#fff;fill-rule:evenodd;}</style></defs><title>on_chess</title><g id="圖層_2" data-name="圖層 2"><g id="圖層_1-2" data-name="圖層 1"><g id="Group_83" data-name="Group 83"><g id="圖層_1-2-2" data-name="圖層 1-2"><rect id="Rectangle_28" data-name="Rectangle 28" class="cls-1" x="1" y="1" width="24.86" height="31.69" rx="2"/><g id="形狀_37" data-name="形狀 37"><path id="Path_36" data-name="Path 36" class="cls-2" d="M16.18,13a8.42,8.42,0,0,1-2.75-3,7.53,7.53,0,0,1-2.76,3c-1.51,1-3.89,2-3.89,4.55,0,4.51,4.59,5.56,6.45,2-.05,1.19-.35,3.38-1.43,3.64-.1,0-.2.16-.1.22.75.47,3.05.29,3.4.22s.19-.3.17-.33c-.83-.44-1.54-2-1.61-3.67,1.83,3.31,6.38,2.43,6.41-2C20.09,15,17.71,14.07,16.18,13Z"/></g></g></g></g></g></svg>