<svg xmlns="http://www.w3.org/2000/svg" viewBox="0 0 45.58 24.05"><defs><style>.cls-1{fill:#fff;}</style></defs><title>on_fishing</title><g id="圖層_2" data-name="圖層 2"><g id="圖層_1-2" data-name="圖層 1"><g id="Group_82" data-name="Group 82"><path id="Path_35" data-name="Path 35" class="cls-1" d="M45.31,4.83l-7-4.72a.61.61,0,0,0-.86.16.61.61,0,0,0-.08.54l.89,2.85H31.87V2.32a.62.62,0,0,0-.62-.62H4.19a.59.59,0,0,0-.4.15l-3.57,3A.62.62,0,0,0,0,5.35v3A.63.63,0,0,0,.63,9H4.56L.06,18.41a.66.66,0,0,0-.06.27v4.75a.62.62,0,0,0,.62.62H7a.61.61,0,0,0,.59-.43l2.62-7.88h2.89a5.25,5.25,0,0,0,4-1.86L21.27,9h6.41a.59.59,0,0,0,.4-.15L30.21,7h8l-.89,2.85a.63.63,0,0,0,1,.7l7-4.72A.64.64,0,0,0,45.48,5a1.37,1.37,0,0,0-.17-.17ZM30.63,3V4.73H13.27V3ZM5.94,9h1.8l-4,9.06H1.6Zm.64,13.8H1.24V19.3h2.9a.62.62,0,0,0,.57-.37L9.11,9h2.05ZM16.84,9l-2.29,2.69a1.84,1.84,0,0,1-1.42.66H11.36L12.47,9Zm-.66,4.08a4,4,0,0,1-3,1.41H10.65l.3-.89h2.18a3.11,3.11,0,0,0,2.38-1.1l3-3.5h1.16ZM27.46,7.75H1.25V5.64L4.42,3H12v2.4a.62.62,0,0,0,.62.62H29.55ZM38.65,5.8h-7a1.19,1.19,0,0,0,.18-.89h6.78l.14.44Zm.44,2.77.95-3a.77.77,0,0,0,0-.37l-.95-3,4.76,3.22Z"/></g></g></g></svg>