<svg xmlns="http://www.w3.org/2000/svg" viewBox="0 0 36.93 36.91"><defs><style>.cls-1{fill:#fff;}</style></defs><title>on_horseracing</title><g id="圖層_2" data-name="圖層 2"><g id="圖層_1-2" data-name="圖層 1"><g id="Group_81" data-name="Group 81"><g id="Group_76" data-name="Group 76"><g id="Group_75" data-name="Group 75"><path id="Path_32" data-name="Path 32" class="cls-1" d="M36.78,26.49,28.91,16.34a.65.65,0,0,0-.46-.27,1.8,1.8,0,0,1-1.05-.72,3.38,3.38,0,0,1-.3-2.55.72.72,0,0,0-.57-.84.66.66,0,0,0-.44.06,4.51,4.51,0,0,0-2.57,2.92c0,.16-.07.32-.1.48a6,6,0,0,0-3.94,2.1l-.49.59A11.44,11.44,0,0,1,17,20l-4.23-4.39a3.43,3.43,0,0,1-.92-3l.1-.6L14,10.73l.39.26a2.71,2.71,0,0,0,3.28-.19l.52-.44.68.34a.72.72,0,0,0,1-.31.42.42,0,0,0,0-.1l.69-2,1.12-2.33.06-.14a4.62,4.62,0,0,0-8.9-2.47l-.71,1.41A3.34,3.34,0,0,1,9.74,6.5l-.08,0L.52,9.21A.72.72,0,0,0,0,9.9v9.27a.72.72,0,0,0,.72.72.77.77,0,0,0,.39-.11l4-2.55a3.44,3.44,0,0,0,1.74,1.6l6.74,2.85A11.22,11.22,0,0,1,8.89,22L.82,21A.71.71,0,0,0,0,21.6a.28.28,0,0,0,0,.09v14.5a.72.72,0,0,0,.72.72H18.47a.72.72,0,0,0,0-1.44H13.13a2,2,0,0,1-1.73-1L10,32.25A.72.72,0,0,0,8.77,33l1.4,2.26.14.2H1.43v-13l7.26,1A12.65,12.65,0,0,0,15,22.71a10.38,10.38,0,0,0,1.18-.53l6.19,3.41-5.41,4.85c-.38-.35-.7-.63-.94-.84s-.36-.3-.48-.4c-.58-.44-1-.21-1.13,0a.72.72,0,0,0,0,1,.73.73,0,0,0,.26.17c.36.26,1.83,1.58,4.94,4.53a1.85,1.85,0,0,1,.56,1.31.72.72,0,0,0,1.44,0,3.25,3.25,0,0,0-1-2.35c-.7-.67-1.65-1.57-2.56-2.42l5.45-4.89a4,4,0,0,0,3,1.37H28l3.94,2.41a.76.76,0,0,0,.38.11h2.36a.72.72,0,0,0,.63-.37l1.54-2.77A.73.73,0,0,0,36.78,26.49ZM19.43,7.27a1.64,1.64,0,0,1-.79-.44,1.6,1.6,0,0,1-.35-.51h0a2.9,2.9,0,0,1-.23-.76L20,6.07ZM18.09,1.53A3.17,3.17,0,0,1,20.44,4.7l-6-1.6a3.18,3.18,0,0,1,3.62-1.57Zm-4.2,2.9,2.67.72c0,.15,0,.29,0,.43l-2.89-.79Zm1.58,16.48L7.38,17.49a2,2,0,0,1-1.24-1.86v-3a.73.73,0,0,0-1.45,0v3.09L1.43,17.85V10.43L10,7.91a4.8,4.8,0,0,0,3-1.83l4.16,1.15a3.61,3.61,0,0,0,.49.62,3.14,3.14,0,0,0,1.28.78L18.76,9l-.37-.19a.73.73,0,0,0-.8.1l-.89.76a1.26,1.26,0,0,1-1.53.09l-.78-.53a.71.71,0,0,0-.79,0l-1.37.86.06-.36a.72.72,0,0,0-1.42-.23L10.4,12.4a4.93,4.93,0,0,0,1.31,4.2l4,4.17-.26.14Zm14.6-.6h.09l.43.56a4.39,4.39,0,0,1-2-.56Zm-5.16-5a2.88,2.88,0,0,1,.66-1.18,3.84,3.84,0,0,0,.67,2.08,3.19,3.19,0,0,0,1.68,1.21l.24.31a6,6,0,0,0-2.72.66,4.2,4.2,0,0,1-.52-3.08ZM22.36,24l-4.78-2.63A12.64,12.64,0,0,0,20.09,19l.49-.59a4.49,4.49,0,0,1,2.84-1.57,6.76,6.76,0,0,0,.83,2.34l-.22.2A5.78,5.78,0,0,0,22.36,24Zm4.09,2.5a2.54,2.54,0,0,1-2.23-1.32v0h0a2,2,0,0,1-.17-.4.61.61,0,0,0-.15-.26,4.34,4.34,0,0,1,.61-3.27l2.56,5.3ZM34.24,29H32.51l-3.75-2.31L25.54,20a4.43,4.43,0,0,1,.95-.53.54.54,0,0,0,0,.18c0,.11.38,2.66,4.88,2.66a.67.67,0,0,0,.31-.07L35.35,27Z"/></g></g><g id="Group_78" data-name="Group 78"><g id="Group_77" data-name="Group 77"><path id="Path_33" data-name="Path 33" class="cls-1" d="M8.78,30.29l0,0A.72.72,0,0,0,7.53,31l0,0a.73.73,0,0,0,1,.23.72.72,0,0,0,.23-1Z"/></g></g><g id="Group_80" data-name="Group 80"><g id="Group_79" data-name="Group 79"><path id="Path_34" data-name="Path 34" class="cls-1" d="M33.1,26.74a.79.79,0,0,0-.79.79.79.79,0,0,0,.79.8.8.8,0,0,0,.8-.8.79.79,0,0,0-.8-.79Z"/></g></g></g></g></g></svg>