<svg xmlns="http://www.w3.org/2000/svg" viewBox="0 0 31.69 31.69"><defs><style>.cls-1{fill:#fff;}</style></defs><title>on_pull</title><g id="圖層_2" data-name="圖層 2"><g id="圖層_1-2" data-name="圖層 1"><g id="Group_84" data-name="Group 84"><g id="圖層_1-2-2" data-name="圖層 1-2-2"><path id="Path_37" data-name="Path 37" class="cls-1" d="M7.88,5.52H24.43l.4,3.15q-2.68,2.1-5.31,7.38a22.54,22.54,0,0,0-2.63,10.13H10.72a19,19,0,0,1,3-8.2,41.23,41.23,0,0,1,7-8.66H13.2a6.84,6.84,0,0,0-2.38.27,2.46,2.46,0,0,0-1,1.05A12.16,12.16,0,0,0,9,12.17l-2.16-.36Z"/><path id="Path_38" data-name="Path 38" class="cls-1" d="M28.54,2.1a1,1,0,0,1,1.05,1h0V28.53a1,1,0,0,1-1.05,1H3.15a1,1,0,0,1-1-1h0V3.15a1,1,0,0,1,1-1H28.53m0-2.1H3.15A3.15,3.15,0,0,0,0,3.15H0V28.54a3.15,3.15,0,0,0,3.15,3.15H28.53a3.15,3.15,0,0,0,3.16-3.15h0V3.15A3.15,3.15,0,0,0,28.54,0h0Z"/></g></g></g></g></svg>