<svg xmlns="http://www.w3.org/2000/svg" viewBox="0 0 33.15 33.16"><defs><style>.cls-1{fill:none;stroke:#fff;stroke-miterlimit:10;stroke-width:2px;}.cls-2{fill:#fff;}</style></defs><title>on_special</title><g id="圖層_2" data-name="圖層 2"><g id="圖層_1-2" data-name="圖層 1"><g id="Group_85" data-name="Group 85"><g id="圖層_1-2-3" data-name="圖層 1-2-3"><path id="Path_39" data-name="Path 39" class="cls-1" d="M16.58,1A15.57,15.57,0,0,0,1,16.58H1A15.58,15.58,0,0,0,16.58,32.16h0A15.58,15.58,0,0,0,16.57,1h0Z"/><path id="Path_40" data-name="Path 40" class="cls-2" d="M23.66,12.6l-3.76-.3L18.46,8.83a2,2,0,0,0-2.66-1.1h0a2,2,0,0,0-1.1,1.1L13.25,12.3l-3.76.3a2,2,0,0,0-1.86,2.2h0a2,2,0,0,0,.7,1.38l2.86,2.45L10.3,22.3a2,2,0,0,0,3,2.21l3.22-2,3.22,2a2,2,0,0,0,2.8-.67h0a2,2,0,0,0,.24-1.54l-.88-3.67,2.87-2.45a2,2,0,0,0-1.14-3.58Z"/></g></g></g></g></svg>