<svg xmlns="http://www.w3.org/2000/svg" width="63.952" height="17.046" viewBox="0 0 63.952 17.046">
    <defs>
        <style>.a{fill:#009cde;}.b{fill:#003087;}</style>
    </defs>
    <g transform="translate(0.032)">
        <path class="a" d="M889.017,4.66c-.274,1.784-1.635,1.784-2.952,1.784h-.749l.528-3.335a.416.416,0,0,1,.411-.35h.342c.9,0,1.744,0,2.183.512a1.674,1.674,0,0,1,.238,1.39M888.445,0h-4.974a.7.7,0,0,0-.685.584l-2.01,12.752a.417.417,0,0,0,.346.475.326.326,0,0,0,.064,0h2.554a.488.488,0,0,0,.479-.407l.572-3.617a.692.692,0,0,1,.681-.584h1.575c3.279,0,5.168-1.583,5.663-4.729a3.846,3.846,0,0,0-.632-3.21A4.652,4.652,0,0,0,888.445,0" transform="translate(-845.326 0)"/>
        <path class="b" d="M8.214,4.66c-.27,1.784-1.635,1.784-2.952,1.784H4.513L5.04,3.109a.416.416,0,0,1,.411-.35h.342c.9,0,1.744,0,2.183.512a1.674,1.674,0,0,1,.238,1.39M7.642,0H2.668a.7.7,0,0,0-.685.584L-.027,13.336a.414.414,0,0,0,.346.475.346.346,0,0,0,.064,0H2.761a.688.688,0,0,0,.681-.584l.544-3.44a.692.692,0,0,1,.681-.584H6.241c3.279,0,5.168-1.587,5.663-4.729a3.846,3.846,0,0,0-.632-3.21A4.636,4.636,0,0,0,7.642,0M19.19,9.24A2.654,2.654,0,0,1,16.5,11.515a2,2,0,0,1-1.6-.644A2.023,2.023,0,0,1,14.53,9.2,2.665,2.665,0,0,1,17.2,6.908a2.01,2.01,0,0,1,1.587.648,2.054,2.054,0,0,1,.4,1.684M22.509,4.6h-2.38a.416.416,0,0,0-.411.35l-.1.665-.165-.242a3.384,3.384,0,0,0-2.811-1A5.479,5.479,0,0,0,11.32,9.163a4.5,4.5,0,0,0,.886,3.661,3.731,3.731,0,0,0,3,1.212,4.562,4.562,0,0,0,3.3-1.361l-.1.661a.414.414,0,0,0,.346.475.346.346,0,0,0,.064,0h2.143a.7.7,0,0,0,.685-.584l1.289-8.152a.417.417,0,0,0-.346-.475.392.392,0,0,1-.072,0" transform="translate(0 0)"/>
        <path class="a" d="M1168.756,113.466a2.654,2.654,0,0,1-2.687,2.276,1.848,1.848,0,0,1-1.974-2.316,2.665,2.665,0,0,1,2.67-2.292,2.009,2.009,0,0,1,1.587.648,2.054,2.054,0,0,1,.4,1.684m3.319-4.64h-2.38a.416.416,0,0,0-.411.35l-.1.665-.165-.242a3.384,3.384,0,0,0-2.812-1,5.479,5.479,0,0,0-5.317,4.789,4.5,4.5,0,0,0,.886,3.661,3.731,3.731,0,0,0,3,1.212,4.563,4.563,0,0,0,3.3-1.361l-.1.661a.415.415,0,0,0,.342.475.369.369,0,0,0,.068,0h2.143a.7.7,0,0,0,.685-.584l1.289-8.152a.418.418,0,0,0-.346-.475.371.371,0,0,1-.073,0" transform="translate(-1114.089 -104.226)"/>
        <path class="b" d="M610,114.2h-2.4a.691.691,0,0,0-.572.3l-3.3,4.862-1.4-4.672a.7.7,0,0,0-.661-.5h-2.352a.414.414,0,0,0-.415.415.37.37,0,0,0,.024.133l2.638,7.741-2.481,3.5a.417.417,0,0,0,.338.657h2.392a.7.7,0,0,0,.568-.3l7.963-11.5A.413.413,0,0,0,610,114.2" transform="translate(-574.808 -109.6)"/>
        <path class="a" d="M1461.318.35l-2.042,12.986a.417.417,0,0,0,.346.475.348.348,0,0,0,.064,0h2.054a.7.7,0,0,0,.685-.584L1464.44.479a.414.414,0,0,0-.347-.475.346.346,0,0,0-.064,0h-2.3a.414.414,0,0,0-.415.35" transform="translate(-1400.526)"/>
    </g>
</svg>
