<svg xmlns="http://www.w3.org/2000/svg" viewBox="0 0 21.84 21.84">
    <defs>
        <style>.cls-2-1{fill:#fff;}.cls-2-2{fill:none;stroke:#fff;stroke-miterlimit:10;stroke-width:2px;}</style>
    </defs>
    <g id="圖層_2" data-name="圖層 2">
        <g id="Group_12" data-name="Group 12">
            <path id="Path_5" data-name="Path 5" class="cls-2-1" d="M5.81,3.89H16.44L16.69,6a14.94,14.94,0,0,0-3.41,5A16.13,16.13,0,0,0,11.59,18h-4a13.31,13.31,0,0,1,1.91-5.57A27.67,27.67,0,0,1,14,6.48H9.23a4.37,4.37,0,0,0-1.53.18A1.64,1.64,0,0,0,7,7.38a7.66,7.66,0,0,0-.5,1L5.15,8.18Z"/>
        </g>
        <path id="Rectangle_1616" data-name="Rectangle 1616" class="cls-2-2" d="M2.26,1H19.58a1.25,1.25,0,0,1,1.26,1.26V19.58a1.25,1.25,0,0,1-1.26,1.26H2.26A1.26,1.26,0,0,1,1,19.58V2.26A1.26,1.26,0,0,1,2.26,1Z"/>
    </g>
</svg>
