<svg id="圖層_1" data-name="圖層 1"
    xmlns="http://www.w3.org/2000/svg" viewBox="0 0 450.65 467.08">
    <style>.cls-1{fill:#8E8E8E}</style>
    <title>分享</title>
    <path class="cls-1" d="M443.19,142.93a73.65,73.65,0,0,1-66.55,73.54c-1.13.11-2.28.1-3.41.12-7.27.12-7.31.1-9.86,6.71q-37.62,97.6-75.27,195.2c-1,2.59-.42,3.72,1.83,5.09a56.53,56.53,0,0,1,21.13,22.7c1.67,3.24,3.4,3.72,6.7,2.81q56.73-15.72,113.54-31.21,31.59-8.67,63.19-17.29c4.89-1.34,5-1.32,4.88-6.34-.87-33.91,23.6-66.39,60.52-73.36,40.59-7.66,80.82,21.39,86.11,62.39,5.14,39.84-20.37,75.53-59.83,82.8-32.45,6-64-9.84-79.07-39.54-1.47-2.91-2.75-3.6-6-2.71q-65.13,18-130.32,35.82c-16.34,4.48-32.69,9-49.06,13.35-2.44.65-3.54,1.59-3.6,4.35-.62,28.84-22.47,53.61-51.1,58.1a61.24,61.24,0,0,1-70.64-53.38c-4.28-35.79,24.14-67.85,60.22-67.93,7.48,0,7.45,0,10.18-7.12q36.57-94.9,73.15-189.8c0-.11.09-.21.13-.32,2-5.19,2-5.16-3-7.67-28.22-14.13-44.41-43-40.81-74.07,3.91-33.72,28.15-59.11,60.5-64.89,40.88-7.3,80.44,21.53,85.81,62.45A87.1,87.1,0,0,1,443.19,142.93Zm-73.51,56.13c31.73-.76,55.95-25.25,55.81-56.28-.15-31.34-24.69-55.7-55.88-55.72-31.44,0-56,24.62-56,56S338.39,198.48,369.68,199.06ZM573,447.59c30-.7,53.79-23.57,53.86-54,.06-30-23.24-53.82-53.72-53.94-30.26-.11-54.1,23.56-54,54S543.1,446.92,573,447.59Zm-315.7-13.83c-23.13.65-41.23,17.78-41.31,41.3-.08,23.16,17.67,41.21,41.14,41.32,22.79.11,41.24-17.38,41.31-41.15C298.54,452.09,280.84,434.55,257.33,433.76Z" transform="translate(-196 -69.15)"/>
</svg>
