<svg id="圖層_1" data-name="圖層 1"
    xmlns="http://www.w3.org/2000/svg" viewBox="0 0 518.64 518.79">
    <defs>
        <style>.cls-1{fill:#fff}</style>
    </defs>
    <title>Windows_icon_logo</title>
    <path class="cls-1" d="M665,297a245,245,0,0,1-3.19,39.41,12.26,12.26,0,0,0,1.56,8,142.17,142.17,0,0,1,16.69,73.67c-1.5,34.15-13.61,64.24-36.12,90a140.8,140.8,0,0,1-76.24,45.66c-35.3,8.06-69.14,3.54-101.25-13.28a11.58,11.58,0,0,0-7.56-1.24q-113.21,16-199.94-58.58c-26.32-22.64-45.82-50.43-60.24-81.82-12.21-26.59-19-54.56-21.15-83.78-1.39-18.73-.18-37.25,2.43-55.74A9.35,9.35,0,0,0,179,253.2c-12.83-24.1-18.75-49.84-17.09-77.06,2-33.54,14.24-63.09,36.58-88.29,23-25.91,51.68-41.64,85.79-47.07,31.91-5.08,62.34.09,91,15.15a11.49,11.49,0,0,0,7.58,1.28,242.05,242.05,0,0,1,131.7,15.71,232.58,232.58,0,0,1,66,40.91c6.11,5.41,13.07,10.12,18.19,16.34C609.2,143,619.82,155.8,628.57,170a246.31,246.31,0,0,1,35.37,105.65C664.69,283.13,665.39,290.62,665,297ZM306,77.4c-12.23-.25-25.37,2.31-38.1,7.25C228.25,100,200.6,139.74,200.05,181.1a112.83,112.83,0,0,0,18,63.41,13.1,13.1,0,0,1,1.78,10.32c-3.79,19.67-5.59,39.44-3.89,59.57,3.19,37.75,15.49,72,37.39,102.87a202,202,0,0,0,61.31,57c46.49,27.82,96.54,35.74,149.56,25.26a13.8,13.8,0,0,1,10.83,1.86c26.53,16.64,55,21.82,85.71,14.72,45.44-10.54,80.48-54.24,81.1-100.81a111.84,111.84,0,0,0-17.69-62.52A14.69,14.69,0,0,1,622.13,341c5.06-24,6.27-48.27,2.35-72.49-10.32-63.73-43-113-98.09-146.58-46-28-96-35.33-148.62-24.94a13.75,13.75,0,0,1-10.85-1.8C348.8,83.74,329.11,77.27,306,77.4Z" transform="translate(-161.61 -38.89)"/>
    <path class="cls-1" d="M422.28,448.56c-29.69-.47-58.31-4.71-84.26-19.93-15.93-9.34-28.65-21.71-35.19-39.46-5.9-16-1.43-30.9,11.32-38,13.91-7.76,29.91-4,40.38,9.52q6,7.71,11.88,15.44c9.47,12.3,22,19.67,37.15,22.43,16.88,3.08,33.5,2.76,49.22-5.29,7.73-4,14.1-9.48,18.24-17.2,8.17-15.24,3.18-30.93-12.24-38.81-9.17-4.69-19.33-6.12-29.11-8.77-23-6.22-46.34-11-69.12-18a103.91,103.91,0,0,1-26.21-12.14c-18-11.7-28.43-28.18-31-49.5-3-24.12,1.06-46.47,17.24-65.56C331,171,344.27,162.74,359.31,157.71c48.22-16.11,94.85-12.63,139.06,13.21,12.33,7.2,22.87,16.78,28.22,30.67,5.49,14.27,2.31,26.5-8.48,33.81-11.79,8-28,7-38.34-2.51-5-4.64-9.65-9.67-14.3-14.66-11.4-12.23-25.87-18-42.1-19.46-13.68-1.21-27.33-.89-40,5.82-11.58,6.14-17.6,17.11-16.1,30.15,1,8.26,6.41,13.33,13.2,17.09,10.61,5.89,22.33,8.51,34.05,11.16,20.46,4.61,41,9,61.29,14.23,17.15,4.44,32.69,12.38,45.26,25.29s18.77,28.84,20.13,46.71c1.72,22.69-3.77,43.36-18.23,61.13-13.66,16.79-32,26.23-52.49,32C454.67,446.77,438.46,448.31,422.28,448.56Z" transform="translate(-161.61 -38.89)"/>
</svg>
