<svg xmlns="http://www.w3.org/2000/svg" width="48.761" height="88.918" viewBox="0 0 48.761 88.918"><path d="M161.591,8h-34.42A7.179,7.179,0,0,0,120,15.171V89.747a7.179,7.179,0,0,0,7.171,7.171h34.42a7.179,7.179,0,0,0,7.171-7.171V15.171A7.179,7.179,0,0,0,161.591,8ZM154.1,10.868l-.861,4.3H135.517l-.86-4.3Zm11.788,78.879a4.307,4.307,0,0,1-4.3,4.3h-34.42a4.307,4.307,0,0,1-4.3-4.3V15.171a4.307,4.307,0,0,1,4.3-4.3h4.561l1.2,6.018a1.434,1.434,0,0,0,1.406,1.153H154.42a1.434,1.434,0,0,0,1.406-1.153l1.2-6.018h4.561a4.307,4.307,0,0,1,4.3,4.3Z" transform="translate(-120 -8)"/><path d="M162.039,456h-8.6a1.434,1.434,0,0,0,0,2.868h8.6a1.434,1.434,0,0,0,0-2.868Z" transform="translate(-146.263 -375.687)"/><path d="M226.868,456h-1.434a1.434,1.434,0,0,0,0,2.868h1.434a1.434,1.434,0,0,0,0-2.868Z" transform="translate(-205.356 -375.687)"/></svg>