<svg id="圖層_1" data-name="圖層 1"
    xmlns="http://www.w3.org/2000/svg" viewBox="0 0 185.71 166.39">
    <defs>
        <style>.cls-1{fill:#fff}</style>
    </defs>
    <title>TELEGRAM</title>
    <path class="cls-1" d="M562.5,205.88c-3-2.4-6.18-1.43-9.42-.14Q469.65,239,386.15,272.17c-3.73,1.48-6.6,3.37-6.62,7.7s2.79,6.32,6.56,7.72c12.78,4.77,25.45,9.84,38.26,14.51,3.48,1.27,5.28,3.07,6.18,6.75,3.29,13.39,7,26.68,10.48,40,2.4,9.1,7.05,10.7,14.82,5.12,6.35-4.57,12.83-9,19-13.75,2.56-2,4.28-1.92,6.9-.11,13.68,9.47,27.52,18.7,41.28,28.06,2,1.32,3.87,2.62,6.62,2.62a7.37,7.37,0,0,0,6.78-6c.65-2.74,1.07-5.54,1.6-8.32q13.37-70.52,26.79-141C565.52,211.78,565.69,208.41,562.5,205.88Zm-117.58,99.8c-.69-10.35-6.88-15.23-16.27-17.87-7-2-13.72-5-21.52-8l114.66-45.64c.19.35.38.7.56,1.06-3.57,3.64-7.07,7.36-10.74,10.9-21,20.23-42,40.36-62.92,60.67C446,309.44,445.12,308.65,444.92,305.68Zm8.4,31.87c-1.78-6.68-3.45-13-5.42-20.33L465.17,329ZM524,350.91l-58.6-39.68,81-78C538.86,273,531.5,311.63,524,350.91Z" transform="translate(-379.53 -204.41)"/>
</svg>
