<svg id="圖層_1" data-name="圖層 1"
    xmlns="http://www.w3.org/2000/svg" viewBox="0 0 221.79 185.43">
    <defs>
        <style>.cls-1{fill:#fff}</style>
    </defs>
    <title>推特</title>
    <path class="cls-1" d="M348.08,345.05c-4.83-7.35-9.27-13.34-12.8-19.83-1.81-3.34-1.9-7.6-2.94-11.4a12.57,12.57,0,0,0-2-4.3,54,54,0,0,1-11.83-32.73c0-1.82-.4-4.16.53-5.38,3.85-5.05,1.43-10,.54-15.1a52.35,52.35,0,0,1,5.21-33.9c6-11.52,17.44-12.64,25.81-2.81,14.37,16.89,32.46,27.65,54.4,32.73.66-2.52,1.2-4.72,1.8-6.9,9.46-34.72,50-50.67,80.42-31.4,3.77,2.4,6.78,2.67,10.45.63,2.75-1.53,5.61-2.88,8.44-4.27,10.17-5,20.95,1.75,21.12,13a10.41,10.41,0,0,0,1.82,5.72c4.18,5.57,4.87,12.44.62,18s-9.21,10.5-13.54,16c-1.62,2-3.17,4.72-3.34,7.21-2.47,35.5-16.14,65.73-42.67,89.59s-58.28,33.15-93.57,30.92a123.7,123.7,0,0,1-58.23-18.93c-4.69-2.93-7.58-6.88-7.57-12.64a13.79,13.79,0,0,1,14.13-14.23C332.48,345,340.1,345.05,348.08,345.05Zm-15.48-69c1.25,19.69,11.59,32,29.45,39.34H346.53c6.69,16.86,18.66,25.46,36.54,27.69-17.22,13-35.73,17.73-57.32,16.23,13.66,9.31,29.14,15.09,50.1,17.06,30.83,2.9,58.93-4.95,82.55-25.42,26.78-23.21,39.67-53.11,40.39-88.45,0-1.93,1.43-4.17,2.82-5.67,5.22-5.57,10.7-10.89,16.09-16.31l-.94-.87L498,244.72c11.15-12.35,13.19-15.28,13.61-20.22-6.61,2.31-13.41,4.93-20.38,7a7.45,7.45,0,0,1-6-1.42c-14.2-12.46-35.24-13.54-50.17-2.13-13.3,10.15-17.76,23.84-15.33,40.67-33.08-2.2-59.91-16.13-81.74-41.41-9.34,20.62-5.4,37.69,10.08,53.1Z" transform="translate(-310.74 -205.75)"/>
</svg>
