<svg xmlns="http://www.w3.org/2000/svg" width="19" height="20" viewBox="0 0 19 20">
    <defs>
        <style>.a{fill:#b4b4b4;}</style>
    </defs>
    <path class="a" d="M10.279.333A1.094,1.094,0,0,0,8.721.318L8.706.333,4.318,4.859a1.12,1.12,0,0,0,.016,1.572A1.093,1.093,0,0,0,5.89,6.414l2.5-2.581v9.621a1.1,1.1,0,1,0,2.2,0V3.834l2.5,2.58a1.091,1.091,0,0,0,1.554.035,1.119,1.119,0,0,0,.035-1.571l-.018-.019Z" transform="translate(0)"/>
    <path class="a" d="M19,12.838v6.051A1.107,1.107,0,0,1,17.9,20H1.1A1.107,1.107,0,0,1,0,18.889H0V12.838a1.1,1.1,0,1,1,2.209,0v4.94H16.791v-4.94a1.1,1.1,0,1,1,2.209,0Z"/>
</svg>
