<svg xmlns="http://www.w3.org/2000/svg" viewBox="0 0 44.05 44.05"><defs><style>.cls-1,.cls-2{fill:#fff;}.cls-2{stroke:#fff;stroke-miterlimit:10;}</style></defs><title>upper</title><g id="圖層_2" data-name="圖層 2"><g id="圖層_1-2" data-name="圖層 1"><g id="Group_51" data-name="Group 51"><g id="Group_48" data-name="Group 48"><g id="Group_47" data-name="Group 47"><path id="Path_18" data-name="Path 18" class="cls-1" d="M37.6,6.46A22,22,0,0,0,0,22a22,22,0,0,0,22,22,22,22,0,0,0,22-22A21.86,21.86,0,0,0,37.6,6.46ZM35.83,35.83A19.52,19.52,0,0,1,8.23,8.23a19.52,19.52,0,0,1,27.6,27.6Z"/></g></g><g id="Group_50" data-name="Group 50"><g id="Group_49" data-name="Group 49"><path id="Path_19" data-name="Path 19" class="cls-2" d="M32.83,21.19H13.23L24.32,10.11a.85.85,0,0,0,0-1.18.83.83,0,0,0-1.18,0L10.63,21.44a.83.83,0,0,0,0,1.18L23.14,35.13a.81.81,0,0,0,.59.24.82.82,0,0,0,.59-.24.85.85,0,0,0,0-1.18L13.23,22.86h19.6a.84.84,0,0,0,.84-.83h0A.85.85,0,0,0,32.83,21.19Z"/></g></g></g></g></g></svg>