<svg xmlns="http://www.w3.org/2000/svg" width="11.179" height="13.4" viewBox="0 0 11.179 13.4">
    <defs>
        <style>.a{fill:#fff;}</style>
    </defs>
    <path class="a" d="M90.259,6.455a3.123,3.123,0,0,0,2.282-.946,3.123,3.123,0,0,0,.945-2.282A3.123,3.123,0,0,0,92.541.946a3.227,3.227,0,0,0-4.564,0,3.123,3.123,0,0,0-.946,2.282,3.123,3.123,0,0,0,.946,2.282A3.124,3.124,0,0,0,90.259,6.455Zm0,0" transform="translate(-84.754 0)"/>
    <path class="a" d="M11.152,251.147a7.971,7.971,0,0,0-.109-.847,6.67,6.67,0,0,0-.208-.851,4.2,4.2,0,0,0-.35-.794,3,3,0,0,0-.528-.688,2.327,2.327,0,0,0-.758-.476,2.62,2.62,0,0,0-.968-.175.982.982,0,0,0-.525.222c-.157.1-.341.221-.546.352a3.132,3.132,0,0,1-.707.312,2.746,2.746,0,0,1-1.73,0,3.125,3.125,0,0,1-.707-.311c-.2-.13-.387-.249-.547-.353a.981.981,0,0,0-.524-.222,2.616,2.616,0,0,0-.968.175,2.325,2.325,0,0,0-.758.476,3,3,0,0,0-.528.688,4.213,4.213,0,0,0-.35.794,6.688,6.688,0,0,0-.208.851,7.943,7.943,0,0,0-.109.847c-.018.256-.027.522-.027.791a2.225,2.225,0,0,0,.661,1.683,2.379,2.379,0,0,0,1.7.621H8.816a2.378,2.378,0,0,0,1.7-.621,2.224,2.224,0,0,0,.661-1.683c0-.27-.009-.536-.027-.791Zm0,0" transform="translate(0 -240.844)"/>
</svg>
