<svg xmlns="http://www.w3.org/2000/svg" width="63.203" height="20.505" viewBox="0 0 63.203 20.505">
    <defs>
        <style>.a{fill:#2566af;}.b{fill:#e6a540;}</style>
    </defs>
    <g transform="translate(0 0)">
        <path class="a" d="M27.4,20.162H22.241L25.464.354h5.158ZM17.9.354,12.986,13.977,12.4,11.042h0l-1.733-8.9A2.208,2.208,0,0,0,8.225.354H.1L0,.688A19.287,19.287,0,0,1,5.4,2.953l4.482,17.21h5.374L23.455.354ZM58.465,20.162H63.2L59.072.354H54.927a2.374,2.374,0,0,0-2.382,1.475l-7.69,18.333h5.377l1.075-2.941h6.555l.6,2.941Zm-5.674-7.008L55.5,5.74l1.523,7.414ZM45.257,5.119,45.993.865A14.863,14.863,0,0,0,41.355,0C38.8,0,32.719,1.117,32.719,6.558c0,5.119,7.134,5.182,7.134,7.87s-6.4,2.2-8.51.511l-.766,4.449A14.472,14.472,0,0,0,36.4,20.5c3.521,0,8.829-1.823,8.829-6.783,0-5.152-7.2-5.629-7.2-7.87s5.023-1.95,7.227-.733Z" transform="translate(0 0)"/>
    </g>
    <path class="b" d="M12.406,22.394l-1.736-8.91A2.208,2.208,0,0,0,8.225,11.7H.1l-.1.336a20,20,0,0,1,7.654,3.842A15.46,15.46,0,0,1,12.406,22.394Z" transform="translate(0 -11.349)"/>
</svg>
