<svg xmlns="http://www.w3.org/2000/svg" xmlns:xlink="http://www.w3.org/1999/xlink" width="18" height="16.269" viewBox="0 0 18 16.269"><defs><style>.a{fill-rule:evenodd;}.a,.b{fill:url(#a);}</style><linearGradient id="a" x1="0.5" x2="0.5" y2="1.451" gradientUnits="objectBoundingBox"><stop offset="0" stop-color="#ecdaa5"/><stop offset="0.238" stop-color="#ecdaa5"/><stop offset="0.456" stop-color="#e38b19"/><stop offset="0.812" stop-color="#f6d668"/><stop offset="1" stop-color="#ffffd7"/></linearGradient></defs><g transform="translate(-163.846 75.836)"><g transform="translate(163.846 -74.604)"><path class="a" d="M172.415-72.546a.991.991,0,0,0-.649.247h0l-3.48,3.937h-3.4a1.062,1.062,0,0,0-1.039,1.083v3.649a1.061,1.061,0,0,0,1.042,1.08h3.428l3.495,3.611h0a.988.988,0,0,0,.6.21,1.125,1.125,0,0,0,1.125-1.046v-11.82A1.05,1.05,0,0,0,172.415-72.546Z" transform="translate(-163.846 72.55)"/><path class="b" d="M172.415-72.548a.991.991,0,0,0-.649.247l-.525.592-2.955,3.341h-3.4a1.062,1.062,0,0,0-1.039,1.083v3.653a1.061,1.061,0,0,0,1.042,1.08h3.428l3,3.086.51.525a.988.988,0,0,0,.6.21,1.125,1.125,0,0,0,1.125-1.046V-71.6a1.05,1.05,0,0,0-1.139-.952Z" transform="translate(-163.846 72.552)"/></g><path class="b" d="M198.067-59.567a.851.851,0,0,1-.727-.431.971.971,0,0,1,.262-1.282,7.938,7.938,0,0,0,1.966-11.053,7.935,7.935,0,0,0-1.749-1.809.975.975,0,0,1-.225-1.29.825.825,0,0,1,1.131-.287c.022.013.044.028.065.043a9.825,9.825,0,0,1,3.9,7.893,9.776,9.776,0,0,1-4.166,8.055A.815.815,0,0,1,198.067-59.567Z" transform="translate(-20.848)"/><path class="b" d="M194.388-57.668a.828.828,0,0,1-.634-.292.982.982,0,0,1,.023-1.316,4.908,4.908,0,0,0,0-6.75.979.979,0,0,1-.023-1.312.821.821,0,0,1,1.16-.055c.021.019.04.038.059.059a6.866,6.866,0,0,1,0,9.423A.824.824,0,0,1,194.388-57.668Z" transform="translate(-18.542 -5.143)"/></g></svg>