<svg id="圖層_1" data-name="圖層 1" xmlns="http://www.w3.org/2000/svg" viewBox="0 0 365.04 367.21"><defs><style>.cls-1{fill:#fff;}</style></defs><title>WINDOWS</title><path d="M601,115.28c3.44-.93,3,1.31,3,3.5q0,84.75,0,169.5a32.91,32.91,0,0,1-5.74,1q-94.43.09-188.84,0c-1.76,0-3.52-.16-5.06-.24a8.37,8.37,0,0,1-.48-1.53q0-69.69-.1-139.37c0-2.87,1.2-3.57,3.78-3.94Q486.87,132.72,566.15,121C577.79,119.26,589.39,117.19,601,115.28Z" transform="translate(-239 -115.06)"/><path d="M604,309.28v1c-.18,2.47-.51,4.94-.51,7.41q0,79.07,0,158.15c0,2.14-.29,4.29-.45,6.44h-2a16.42,16.42,0,0,0-2.81-.91q-94.71-13.55-189.44-26.93c-4.18-.58-5-2.13-5-6,.12-44.81.07-89.63.08-134.44,0-1.61.14-3.22.23-5.34h5.28q94.71-.24,189.42-.43A27.09,27.09,0,0,1,604,309.28Z" transform="translate(-239 -115.06)"/><path d="M239,309.28a40.71,40.71,0,0,1,4.89-.57q68.49,0,137,0c1.63,0,3.26.13,4.91.21V450.74c-9.4-1.32-18.25-2.54-27.09-3.81Q300.31,438.61,242,430.27a19.37,19.37,0,0,0-2.95,0Z" transform="translate(-239 -115.06)"/><path d="M239,169.28l146.8-21.6V289.82h-4.93q-68.49,0-137,0a45.43,45.43,0,0,1-4.91-.52Z" transform="translate(-239 -115.06)"/><path class="cls-1" d="M603,482.28c.16-2.15.45-4.3.45-6.44q0-79.08,0-158.15c0-2.47.33-4.94.51-7.41q0,84,0,168A17.76,17.76,0,0,1,603,482.28Z" transform="translate(-239 -115.06)"/></svg>