<svg xmlns="http://www.w3.org/2000/svg" viewBox="0 0 44.21 44.21"><defs><style>.cls-1{fill:#fff;}</style></defs><title>x</title><g id="圖層_2" data-name="圖層 2"><g id="圖層_1-2" data-name="圖層 1"><g id="Group_36" data-name="Group 36"><g id="Group_35" data-name="Group 35"><path id="Path_9" data-name="Path 9" class="cls-1" d="M37.66,6.55A22,22,0,1,0,6.34,37.45l.21.21A22,22,0,0,0,37.87,6.76ZM35.89,35.89A19.5,19.5,0,0,1,8.32,8.32,19.5,19.5,0,0,1,35.89,35.89Z"/><path id="Path_10" data-name="Path 10" class="cls-1" d="M32,12.25a1.26,1.26,0,0,0-1.79,0h0L22.1,20.31l-8-8.06a1.27,1.27,0,0,0-1.8,1.8l8.06,8.06-8.06,8.06a1.27,1.27,0,0,0,0,1.8,1.3,1.3,0,0,0,.89.37A1.23,1.23,0,0,0,14,32L22.1,23.9,30.16,32a1.25,1.25,0,0,0,.89.38A1.23,1.23,0,0,0,32,32a1.26,1.26,0,0,0,0-1.79h0l-8-8.06L32,14a1.27,1.27,0,0,0,0-1.79Z"/></g></g></g></g></svg>