<svg xmlns="http://www.w3.org/2000/svg" width="77" height="17.309" viewBox="0 0 77 17.309">
    <defs>
        <style>.a{fill:#4d4d4d;}.b{fill:#1aad19;}</style>
    </defs>
    <g transform="translate(-0.939 -0.938)">
        <rect class="a" width="7.266" height="0.652" transform="translate(43.624 6.747)"/>
        <rect class="a" width="7.266" height="0.702" transform="translate(43.624 8.782)"/>
        <path class="a" d="M73.593,21.7h6.9V17.768h-6.9Zm.7-3.282h5.493v2.63H74.3Z" transform="translate(-29.785 -6.899)"/>
        <path class="a" d="M68.277,16.623V7.574a22.33,22.33,0,0,0,1.074-2.813l-.65-.376a20.65,20.65,0,0,1-2.761,6.034l.388.666c.408-.6.84-1.315,1.246-2.061v7.6h.7Z" transform="translate(-26.648 -1.413)"/>
        <path class="a" d="M113.52,16.623V7.574a22.329,22.329,0,0,0,1.074-2.813l-.65-.376a20.633,20.633,0,0,1-2.761,6.034l.388.666c.408-.6.84-1.315,1.246-2.061v7.6h.7Z" transform="translate(-45.195 -1.413)"/>
        <path class="a" d="M80.815,6.039H76.547L77,5.779l.016-.01-.007-.017c-.052-.121-.188-.406-.333-.708-.134-.281-.272-.572-.338-.721L76.328,4.3l-.648.374.01.017c.232.436.43.836.609,1.222a.54.54,0,0,1,.047.123H72.074v.7h8.742v-.7Z" transform="translate(-29.162 -1.379)"/>
        <path class="a" d="M51.865,5.671h-.651v2.29H49.983V4.7h-.652V7.961H48.05V5.671H47.4V8.613h4.467Z" transform="translate(-19.046 -1.544)"/>
        <rect class="a" width="3.959" height="0.652" transform="translate(28.555 8.35)"/>
        <path class="a" d="M48,18.019v-.59H49.99v1.453a1.38,1.38,0,0,1-.224.9l-.008.011.4.693.019-.015c.351-.281.949-.795,1.779-1.525l.013-.011-.315-.545-.013-.022-1,.857V16.777H47.293v.989a3.057,3.057,0,0,1-1,2.878l-.015.011.362.629.012.021.019-.016A3.764,3.764,0,0,0,48,18.019" transform="translate(-18.585 -6.493)"/>
        <path class="a" d="M41.942,7.69l.393.681a13.261,13.261,0,0,0,2.515-3.542l-.607-.352a11.111,11.111,0,0,1-2.3,3.213" transform="translate(-16.81 -1.451)"/>
        <path class="a" d="M41.641,14.1l.361.625.014.026.019-.022c.385-.449.761-.923,1.119-1.409v5.657h.652V12.243a17.589,17.589,0,0,0,.847-1.742l.007-.016-.63-.363-.009.022a13.651,13.651,0,0,1-2.371,3.942Z" transform="translate(-16.686 -3.765)"/>
        <path class="a" d="M57.192,12.552a18.151,18.151,0,0,1-.947-4.474,4.573,4.573,0,0,1,.246-.591h1.746a14.907,14.907,0,0,1-1.045,5.066M59.6,7.487V6.835H56.71a13.794,13.794,0,0,0,.635-2.391h-.68a16.209,16.209,0,0,1-1.9,5.061l.412.713.3-.6c.114-.2.206-.367.275-.5a13.477,13.477,0,0,0,1.058,4.2,10.776,10.776,0,0,1-2.188,2.555l-.012.011.375.65.013.022.018-.018a10.784,10.784,0,0,0,2.123-2.515,12.975,12.975,0,0,0,2,2.552l.018.019.386-.667.008-.014-.012-.011a10.47,10.47,0,0,1-2.026-2.532,14.624,14.624,0,0,0,1.37-5.882H59.6Z" transform="translate(-22.003 -1.437)"/>
        <path class="a" d="M121.747,15.759l-.406,0v.7c.278,0,.481,0,.614,0a1.736,1.736,0,0,0,1.359-.442,1.7,1.7,0,0,0,.406-1.3V8.188h1.888v-.7H123.72V4.477h-.7V7.488h-5.8v.7h5.8v6.529c0,.709-.44,1.042-1.268,1.042" transform="translate(-47.67 -1.451)"/>
        <path class="a" d="M121.235,17.285l.7-.407c-.373-.76-.873-1.769-1.492-3.009l-.636.372c.427.836.907,1.856,1.43,3.044" transform="translate(-48.729 -5.301)"/>
        <path class="a" d="M97.447,11.837a10.469,10.469,0,0,1-1.833,1.68,9.719,9.719,0,0,1-3.133-3.844H98.8a7.146,7.146,0,0,1-1.348,2.164m4.165-5.113V6.029H96.084V4.267h-.711V6.029H89.845v.694h5.527V9.038H91.779v.551c.008.023.019.05.032.084A11.186,11.186,0,0,0,95.041,13.9a16.6,16.6,0,0,1-4.955,1.931l.411.711a15.18,15.18,0,0,0,5.1-2.213,14.3,14.3,0,0,0,5.1,2.224l.345-.639a15.554,15.554,0,0,1-4.868-2A10.487,10.487,0,0,0,99.52,9.673a2.7,2.7,0,0,0,.105-.3l-.577-.334H96.084V6.724Z" transform="translate(-36.448 -1.365)"/>
        <path class="b" d="M8.073,11.887a.653.653,0,0,1-.865-.264l-.043-.094L5.38,7.611a.341.341,0,0,1-.031-.138.327.327,0,0,1,.523-.262l2.107,1.5a.974.974,0,0,0,.871.1L18.76,4.4A10.487,10.487,0,0,0,10.747.938C5.33.938.939,4.6.939,9.113a7.7,7.7,0,0,0,3.389,6.179.653.653,0,0,1,.274.533.759.759,0,0,1-.034.208l-.442,1.649a.953.953,0,0,0-.053.239.327.327,0,0,0,.327.327.371.371,0,0,0,.189-.061l2.148-1.24a1.03,1.03,0,0,1,.521-.151.98.98,0,0,1,.288.043,11.609,11.609,0,0,0,3.2.448c5.418,0,9.809-3.66,9.809-8.175a7.076,7.076,0,0,0-1.117-3.788L8.145,11.846Z"/>
    </g>
</svg>
