<svg id="圖層_1" data-name="圖層 1"
    xmlns="http://www.w3.org/2000/svg" viewBox="0 0 225 165">
    <defs>
        <style>.cls-1{fill:#fff}</style>
    </defs>
    <title>YOUTUBE</title>
    <path class="cls-1" d="M497,381.28H346q-30.45-7.36-37-38v-90c4.88-19.79,17-32.34,37-37H497c20.36,4.85,32.58,17.63,37,38v89C529.67,363.73,517.2,376.27,497,381.28ZM421.27,225.65c-22.67,0-45.34-.07-68,0-18.46.07-34.55,15.39-34.8,33.8q-.51,39,0,78c.26,19.37,16.21,34.42,35.69,34.44q67.24,0,134.5,0c19.93,0,35.73-15.4,35.9-35.31q.33-37.5,0-75c-.14-20.59-15.79-35.91-36.31-35.93Q454.76,225.62,421.27,225.65Z" transform="translate(-309 -216.28)"/>
    <path class="cls-1" d="M391.59,300.78c0-11.49-.06-23,0-34.46.05-7.27,3.1-9,9.42-5.33q29.55,17.19,59,34.55c6.15,3.63,6.15,7.39,0,11q-29.44,17.38-59,34.6c-6.22,3.63-9.41,1.78-9.45-5.43C391.54,324.08,391.59,312.43,391.59,300.78Zm9.7.48c0,7.83.14,15.67-.06,23.49-.11,4.32,1.24,4.38,4.5,2.44q20-11.88,40.12-23.48c3.67-2.1,3.28-3.33-.05-5.25q-20.13-11.62-40.1-23.5c-3.79-2.27-4.51-.88-4.45,2.8C401.37,285.59,401.29,293.42,401.29,301.26Z" transform="translate(-309 -216.28)"/>
</svg>
