<?xml version="1.0" standalone="no"?>
<!DOCTYPE svg PUBLIC "-//W3C//DTD SVG 20010904//EN"
 "http://www.w3.org/TR/2001/REC-SVG-20010904/DTD/svg10.dtd">
<svg version="1.0" xmlns="http://www.w3.org/2000/svg"
 width="300.000000pt" height="300.000000pt" viewBox="0 0 300.000000 300.000000"
 preserveAspectRatio="xMidYMid meet">
<metadata>
Created by potrace 1.11, written by Peter Selinger 2001-2013
</metadata>
<g transform="translate(0.000000,300.000000) scale(0.100000,-0.100000)"
fill="#000000" stroke="none">
<path d="M1199 2746 c-2 -2 -41 -7 -85 -10 -45 -4 -93 -9 -105 -11 -13 -2 -59
-9 -101 -15 -102 -15 -244 -53 -342 -92 -166 -65 -267 -144 -313 -245 -27 -58
-43 -176 -26 -186 6 -4 8 4 5 18 -2 14 0 25 4 25 5 0 9 -15 8 -32 0 -36 15
-80 26 -73 3 2 15 -10 25 -28 35 -63 94 -112 144 -122 10 -2 37 -17 62 -33 42
-29 138 -72 159 -72 22 0 6 17 -51 54 -83 54 -111 115 -73 162 15 18 15 18 5
-3 -13 -26 -7 -44 31 -100 23 -34 46 -51 111 -82 79 -39 194 -73 287 -86 25
-4 66 -11 91 -15 94 -18 230 -25 479 -25 275 0 372 7 530 36 30 6 68 13 83 15
105 19 240 73 307 123 21 16 29 19 21 8 -8 -10 -34 -30 -58 -44 -41 -23 -55
-43 -33 -43 15 0 98 40 155 74 27 17 58 32 68 33 21 4 75 39 95 63 26 32 43
72 46 113 7 71 9 74 16 17 l6 -55 13 30 c18 42 7 138 -24 200 -57 115 -181
209 -374 285 -99 39 -323 86 -496 106 -56 6 -690 15 -696 10z m934 -173 c-7
-2 -19 -2 -25 0 -7 3 -2 5 12 5 14 0 19 -2 13 -5z m152 -28 c233 -64 402 -162
446 -260 10 -22 18 -47 18 -55 0 -8 -6 -1 -13 16 -32 74 -153 172 -281 229
-33 15 -112 42 -175 60 -133 39 -129 47 5 10z m-465 -228 c14 -3 50 -8 80 -11
30 -3 82 -11 115 -16 33 -6 74 -13 90 -16 58 -10 230 -66 285 -94 67 -34 110
-72 110 -98 0 -16 -6 -14 -37 15 -50 48 -97 76 -170 103 -59 21 -64 21 -125 7
-59 -14 -86 -20 -147 -32 -13 -2 -49 -7 -80 -11 -31 -3 -64 -8 -73 -10 -89
-16 -426 -22 -598 -11 -192 13 -261 23 -424 59 l-99 22 64 18 c76 21 184 44
254 54 28 3 58 8 68 10 9 1 54 6 100 10 45 3 84 8 85 10 7 5 476 -3 502 -9z
m-1578 -69 c-8 -8 -9 -4 -5 13 4 13 8 18 11 10 2 -7 -1 -18 -6 -23z m2376 -44
c17 -18 32 -41 32 -51 0 -13 -5 -9 -19 13 -10 16 -38 48 -62 69 -31 27 -35 33
-14 20 17 -10 45 -33 63 -51z m-2220 -159 l22 -40 -25 30 c-14 17 -25 36 -25
44 0 17 1 16 28 -34z m2272 26 c0 -6 -12 -23 -26 -38 l-25 -28 23 37 c24 40
28 44 28 29z"/>
<path d="M760 1639 c-78 -8 -121 -23 -175 -60 -98 -67 -144 -153 -150 -281 -8
-182 84 -329 240 -383 49 -17 199 -23 253 -11 79 18 142 45 143 63 0 7 1 60 1
118 0 201 -2 236 -11 231 -5 -3 -14 0 -20 8 -15 18 -290 21 -292 3 -6 -63 -4
-97 8 -124 13 -32 16 -33 68 -33 l55 0 0 -45 c0 -39 -3 -45 -25 -51 -14 -3
-53 -4 -87 -2 -53 4 -65 9 -89 36 -72 81 -56 260 29 321 73 51 180 57 280 16
19 -8 38 -15 43 -15 5 0 9 36 9 80 0 64 -3 80 -15 80 -8 0 -15 5 -15 10 0 15
-45 30 -109 36 -31 3 -60 6 -66 8 -5 1 -39 -1 -75 -5z"/>
<path d="M1422 1638 c-125 -19 -229 -112 -262 -236 -66 -250 89 -496 320 -506
216 -9 363 134 369 358 7 245 -187 419 -427 384z m173 -195 c40 -29 58 -91 53
-178 -4 -63 -10 -83 -34 -118 -40 -58 -85 -80 -149 -73 -41 4 -55 11 -77 37
-33 39 -46 94 -41 169 6 92 54 166 118 183 34 9 105 -2 130 -20z"/>
<path d="M1995 1630 l-50 -5 0 -332 c0 -240 3 -335 12 -344 6 -6 9 -18 6 -25
-4 -11 8 -14 53 -15 188 -3 282 2 330 16 103 30 197 120 226 218 20 69 14 213
-11 278 -42 110 -167 196 -298 205 -111 8 -215 9 -268 4z m310 -189 c53 -24
75 -55 82 -119 16 -155 -97 -268 -244 -243 -6 1 -8 231 -4 367 1 19 6 21 61
18 34 -2 81 -12 105 -23z"/>
<path d="M516 840 c-10 -4 -13 -63 -13 -277 0 -150 3 -273 7 -273 4 0 10 -9
13 -20 5 -19 12 -21 74 -18 l68 3 0 90 0 90 35 2 c158 8 241 76 241 196 0 66
-11 94 -52 136 -43 42 -78 60 -130 67 -54 8 -226 10 -243 4z m236 -146 c41
-12 24 -88 -25 -109 -53 -22 -65 -11 -62 53 2 32 4 60 4 65 1 7 46 2 83 -9z"/>
<path d="M1035 840 c-8 -14 -3 -550 6 -550 5 0 9 -9 9 -20 0 -19 7 -20 175
-20 l175 0 0 56 c0 47 -3 57 -20 61 -11 3 -17 9 -14 14 3 5 -10 9 -28 10 -18
1 -58 2 -88 3 l-55 1 0 210 c0 164 -3 210 -13 210 -7 0 -16 6 -21 13 -8 13
-119 24 -126 12z"/>
<path d="M1638 842 c-21 -4 -220 -552 -201 -552 10 0 12 -6 8 -20 -6 -20 -3
-21 72 -18 l78 3 18 57 c17 52 21 57 50 60 55 5 147 -3 147 -14 0 -5 10 -32
21 -59 l21 -49 74 0 c47 0 74 4 74 11 0 6 -43 133 -96 283 -90 253 -99 273
-126 285 -28 13 -105 20 -140 13z m99 -252 c28 -86 29 -80 -20 -80 l-45 0 21
65 c22 69 26 70 44 15z"/>
<path d="M2000 844 c0 -1 39 -82 87 -180 l87 -179 0 -95 c0 -53 5 -98 11 -102
5 -4 10 -13 10 -20 0 -9 21 -14 72 -16 l72 -3 -1 101 0 101 86 169 c47 93 86
176 86 185 0 8 -9 15 -20 15 -11 0 -19 5 -18 12 2 8 -17 11 -60 11 -35 -1 -64
-3 -66 -5 -1 -1 -19 -43 -41 -93 -21 -49 -41 -94 -45 -98 -4 -4 -24 33 -45 83
-21 49 -43 90 -51 90 -7 0 -14 5 -16 12 -3 7 -31 12 -76 12 -40 1 -72 0 -72 0z"/>
</g>
</svg>
